<svg width="865" height="440" viewBox="0 0 865 440" fill="none" xmlns="http://www.w3.org/2000/svg">
<g clip-path="url(#clip0_53_113)">
<path d="M112 133C182 86 172.249 17.6547 238 21C282.817 23.2802 291.764 73.4581 336 81C398.194 91.6035 422.926 22.452 486 21C536.953 19.827 568.673 28.1615 612 55C633.679 68.4287 645.512 77.5464 662 97C696.344 137.521 723.025 174.052 708 225C691.762 280.061 635 315 586 307C537 299 520 285 486 271C452 257 391.333 253 350 271C308.667 289 271.193 321.074 214 329C153.824 337.34 97.1831 355.043 59.9999 307C16.5925 250.915 41.9999 180 112 133Z" fill="#D9D9D9" stroke="black"/>
<path d="M210.677 240.424C209.874 240.231 209.123 239.863 208.477 239.348C207.831 238.833 207.305 238.182 206.938 237.442C206.571 236.701 206.37 235.89 206.35 235.063C206.331 234.237 206.492 233.417 206.824 232.66L192.084 219.01L202.222 216.521L214.665 229.864C215.9 230.506 216.856 231.578 217.353 232.877C217.85 234.177 217.853 235.614 217.362 236.915C216.87 238.217 215.918 239.293 214.686 239.94C213.454 240.587 212.028 240.759 210.677 240.424Z" fill="#FFB6B6"/>
<path d="M165.697 203.198L150.247 158.099C149.026 154.523 149.274 150.609 150.936 147.215C152.597 143.821 155.538 141.225 159.111 139.997C161.09 139.319 163.194 139.085 165.274 139.312C167.354 139.538 169.358 140.22 171.145 141.309C172.932 142.397 174.457 143.865 175.612 145.61C176.767 147.354 177.525 149.331 177.83 151.401L184.005 193.272L209.838 219.727L203.043 229.409L165.697 203.198Z" fill="#82C8BB"/>
<path d="M140.192 415.96H151.222L156.469 373.418H140.19L140.192 415.96Z" fill="#FFB6B6"/>
<path d="M136.457 410.519L153.893 409.479V416.948L170.469 428.396C171.287 428.962 171.904 429.774 172.228 430.715C172.553 431.655 172.568 432.675 172.272 433.625C171.976 434.575 171.384 435.405 170.583 435.995C169.781 436.584 168.812 436.902 167.817 436.902H134.259L136.457 410.519Z" fill="#2F2E41"/>
<path d="M149.828 216.131C149.828 216.131 146.39 212.529 139.8 221.039C133.711 228.745 134.014 230.25 134.8 240.039C135.44 247.039 129.168 282.221 135.418 288.201L140.458 400.881C140.458 400.881 155.749 405.173 156.469 397.973L195.948 254.691L191.231 218.058L149.828 216.131Z" fill="#2F2E41"/>
<path d="M222.852 414.894L232.517 409.58L216.619 369.773L202.354 377.616L222.852 414.894Z" fill="#FFB6B6"/>
<path d="M216.958 411.925L231.735 402.614L235.334 409.159L255.374 411.205C256.364 411.306 257.296 411.721 258.033 412.389C258.771 413.057 259.276 413.943 259.474 414.918C259.672 415.893 259.553 416.906 259.135 417.808C258.717 418.711 258.021 419.457 257.149 419.936L238.96 429.936L234.6 432.333L227.742 436.104L216.958 411.925Z" fill="#2F2E41"/>
<path d="M135.022 235.143C135.022 235.143 134.822 253.295 133.147 263.927C131.525 273.613 133.627 283.555 139.032 291.755C142.965 297.58 148.758 303.011 157.116 305.24L215.82 401.552C215.82 401.552 231.287 397.946 228.449 391.29L194.014 246.713L172.231 216.885L135.022 235.143Z" fill="#2F2E41"/>
<path d="M134.547 183.789L132.8 240.039L191.053 223.919L192.078 221.138L194.575 211.666C194.575 211.666 188.8 198.039 189.977 166.309L175.262 127.077L151.954 126.601L151.824 126.731C144.463 134.079 139.033 143.135 136.019 153.09C133.004 163.045 132.499 173.591 134.547 183.789Z" fill="#82C8BB"/>
<path d="M251.734 206.907C250.943 207.147 250.109 207.211 249.291 207.095C248.473 206.978 247.69 206.684 246.998 206.232C246.306 205.78 245.722 205.182 245.286 204.48C244.85 203.778 244.573 202.989 244.475 202.168L224.85 197.877L232.326 190.591L249.817 195.783C251.206 195.71 252.574 196.149 253.661 197.017C254.749 197.885 255.48 199.122 255.716 200.493C255.952 201.864 255.678 203.275 254.944 204.457C254.21 205.639 253.068 206.51 251.734 206.907Z" fill="#FFB6B6"/>
<path d="M194.089 197.627L157.906 166.588C155.04 164.125 153.269 160.626 152.981 156.858C152.692 153.09 153.91 149.362 156.367 146.491C157.73 144.903 159.425 143.635 161.332 142.776C163.24 141.917 165.313 141.488 167.405 141.52C169.497 141.553 171.556 142.045 173.436 142.962C175.316 143.88 176.971 145.2 178.284 146.829L204.836 179.789L240.516 189.493L239.568 201.283L194.089 197.627Z" fill="#82C8BB"/>
<path d="M187.8 88.6425C187.796 95.0223 185.368 101.162 181.007 105.819C176.646 110.475 170.678 113.3 164.312 113.72C157.946 114.141 151.658 112.126 146.723 108.084C141.787 104.041 138.572 98.274 137.73 91.9501C136.887 85.6261 138.48 79.2185 142.186 74.0251C145.891 68.8318 151.432 65.2412 157.686 63.9806C163.94 62.7201 170.44 63.884 175.868 67.2364C181.296 70.5888 185.246 75.8792 186.92 82.0357C187.505 84.1891 187.801 86.4109 187.8 88.6425Z" fill="#FFB8B8"/>
<path d="M178.646 55.5412C176.608 55.4807 177.308 51.6392 175.666 50.4137C175.658 50.4509 175.649 50.488 175.641 50.5251C175.426 51.3549 174.949 52.0936 174.283 52.6325C173.616 53.1715 172.794 53.482 171.937 53.5186C171.081 53.5551 170.235 53.3157 169.525 52.8355C168.815 52.3553 168.278 51.6598 167.993 50.8513C167.72 49.9161 167.227 49.06 166.555 48.3549C165.883 47.6499 165.052 47.1166 164.131 46.7998C164.028 50.3604 161.335 53.4507 158.122 54.9886C154.909 56.5264 151.245 56.7823 147.684 56.835C144.122 56.8876 140.509 56.7684 137.055 57.64C133.601 58.5116 130.242 60.5608 128.766 63.8029C127.29 67.0449 128.343 71.5086 131.57 73.0175C129.07 73.0308 126.949 75.0935 126.085 77.4391C125.376 79.8449 125.192 82.3747 125.543 84.8579C126.245 94.0531 127.958 103.953 134.654 110.294C139.757 115.127 147.061 117.074 154.089 117.046C161.118 117.018 159.882 116.372 166.678 114.578C166.678 114.578 173.138 96.0565 171.512 94.2345C169.885 92.4125 168.533 90.081 168.828 87.6561C169.122 85.2313 171.728 83.0591 173.99 83.9821C173.609 83.01 173.323 82.8248 173.143 82.8742C173.258 82.5979 173.357 82.3159 173.442 82.0292C173.868 80.5683 174.634 79.2292 175.678 78.1221C176.722 77.015 178.014 76.1715 179.448 75.6609C180.896 75.191 182.453 75.1755 183.91 75.6165C185.367 76.0574 186.654 76.9337 187.598 78.1277C195.04 71.1489 190.423 55.891 178.646 55.5412Z" fill="#2F2E41"/>
<path d="M610.922 240.424C611.725 240.231 612.476 239.863 613.122 239.348C613.768 238.833 614.294 238.182 614.661 237.442C615.029 236.701 615.229 235.89 615.249 235.063C615.268 234.237 615.107 233.417 614.775 232.66L629.515 219.01L619.377 216.521L606.934 229.864C605.699 230.506 604.743 231.578 604.246 232.877C603.749 234.177 603.746 235.614 604.237 236.915C604.729 238.217 605.681 239.293 606.913 239.94C608.145 240.587 609.571 240.759 610.922 240.424Z" fill="#9E616A"/>
<path d="M618.556 229.409L611.761 219.727L637.594 193.272L643.769 151.401C644.075 149.331 644.832 147.354 645.987 145.61C647.143 143.865 648.668 142.397 650.454 141.309C652.241 140.22 654.245 139.538 656.325 139.312C658.405 139.085 660.509 139.319 662.488 139.997C666.062 141.225 669.002 143.821 670.664 147.215C672.325 150.609 672.573 154.523 671.352 158.099L655.902 203.198L618.556 229.409Z" fill="#7BCC83"/>
<path d="M681.407 415.96H670.377L665.13 373.418H681.409L681.407 415.96Z" fill="#9E616A"/>
<path d="M687.34 436.902H653.782C652.787 436.902 651.818 436.584 651.017 435.995C650.215 435.405 649.623 434.575 649.327 433.625C649.031 432.675 649.046 431.655 649.371 430.715C649.695 429.774 650.312 428.962 651.131 428.397L667.707 416.949V409.479L685.142 410.519L687.34 436.902Z" fill="#2F2E41"/>
<path d="M671.771 216.131C671.771 216.131 680.691 231.941 687.281 240.451C693.369 248.157 692.585 252.25 691.799 262.039C691.159 269.039 692.431 282.221 686.181 288.201L681.141 400.881C681.141 400.881 665.85 405.173 665.13 397.973L625.651 254.691L630.368 218.058L671.771 216.131Z" fill="#2F2E41"/>
<path d="M598.747 414.894L589.082 409.58L604.981 369.773L619.245 377.616L598.747 414.894Z" fill="#9E616A"/>
<path d="M593.857 436.104L586.999 432.333L582.64 429.936L564.45 419.936C563.578 419.457 562.882 418.711 562.464 417.808C562.046 416.906 561.927 415.893 562.125 414.918C562.324 413.943 562.828 413.057 563.566 412.389C564.303 411.721 565.235 411.306 566.225 411.205L586.266 409.159L589.865 402.614L604.641 411.925L593.857 436.104Z" fill="#2F2E41"/>
<path d="M686.578 235.143C686.578 235.143 686.777 253.295 688.452 263.927C690.074 273.613 687.972 283.555 682.567 291.755C678.634 297.58 672.841 303.011 664.483 305.24L605.779 401.552C605.779 401.552 590.313 397.946 593.15 391.29L627.586 246.713L649.368 216.885L686.578 235.143Z" fill="#2F2E41"/>
<path d="M669.775 126.731L669.645 126.601L646.337 127.077L631.622 166.309C632.8 198.039 627.024 211.666 627.024 211.666L629.521 221.138L621.8 268.039L696.036 253.019L687.052 183.789C689.101 173.591 688.595 163.045 685.58 153.09C682.566 143.135 677.136 134.079 669.775 126.731Z" fill="#7BCC83"/>
<path d="M569.865 206.907C570.656 207.147 571.49 207.211 572.308 207.095C573.126 206.978 573.909 206.684 574.601 206.232C575.293 205.78 575.877 205.182 576.313 204.48C576.749 203.778 577.026 202.989 577.124 202.168L596.749 197.877L589.273 190.591L571.782 195.783C570.393 195.71 569.025 196.149 567.938 197.017C566.85 197.885 566.119 199.122 565.883 200.493C565.647 201.864 565.921 203.275 566.655 204.457C567.389 205.639 568.532 206.51 569.865 206.907Z" fill="#9E616A"/>
<path d="M582.031 201.283L581.083 189.493L616.763 179.789L643.316 146.829C644.628 145.2 646.283 143.88 648.163 142.962C650.043 142.045 652.103 141.553 654.194 141.52C656.286 141.488 658.359 141.917 660.267 142.776C662.175 143.635 663.87 144.903 665.232 146.491C667.689 149.362 668.907 153.09 668.619 156.858C668.33 160.626 666.559 164.125 663.694 166.588L627.51 197.627L582.031 201.283Z" fill="#7BCC83"/>
<path d="M634.68 82.0357C636.353 75.8792 640.303 70.5888 645.731 67.2364C651.159 63.884 657.659 62.7201 663.913 63.9806C670.167 65.2412 675.708 68.8318 679.413 74.0251C683.119 79.2185 684.712 85.6261 683.869 91.9501C683.027 98.274 679.812 104.041 674.877 108.084C669.941 112.126 663.653 114.141 657.287 113.72C650.921 113.3 644.953 110.475 640.592 105.819C636.231 101.162 633.803 95.0223 633.8 88.6425C633.798 86.4109 634.094 84.1891 634.68 82.0357Z" fill="#9E616A"/>
<path d="M642.953 55.5414C644.991 55.4808 670.354 56.7825 673.915 56.8351C677.477 56.8878 681.09 56.7685 684.544 57.6401C687.998 58.5117 691.357 60.5609 692.833 63.803C694.308 67.0451 694.65 75.0937 695.514 77.4392C696.222 79.8451 696.407 82.3748 696.056 84.8581C695.353 94.0532 693.641 103.953 686.945 110.294C681.842 115.127 674.538 117.074 667.51 117.046C660.481 117.018 661.717 116.372 654.921 114.578C654.921 114.578 648.461 96.0566 650.087 94.2346C651.714 92.4126 653.066 90.0811 652.771 87.6563C652.477 85.2314 649.871 83.0592 647.609 83.9822C647.99 83.0101 648.276 82.825 648.456 82.8743C648.341 82.5981 648.242 82.316 648.157 82.0293C647.731 80.5684 646.965 79.2293 645.921 78.1223C644.877 77.0152 643.585 76.1717 642.151 75.6611C640.703 75.1911 639.146 75.1756 637.689 75.6166C636.232 76.0575 634.945 76.9338 634 78.1278C626.559 71.149 631.176 55.8911 642.953 55.5414Z" fill="#2F2E41"/>
<path d="M249.983 205.081C282.565 200.811 318.938 196.46 347.451 216.556C358.934 224.649 367.92 236.356 370.662 250.321C372.395 259.15 371.844 268.219 371.956 277.16C372.056 285.168 372.776 293.158 375.474 300.747C380.037 313.581 388.979 324.481 400.041 332.304C412.044 340.663 426.26 345.264 440.884 345.523C473.263 346.332 502.785 328.776 523.397 304.827C545.534 279.108 558.232 247.21 569.314 215.555C570.775 211.381 572.222 207.202 573.653 203.018C574.283 201.189 571.386 200.403 570.761 202.221C559.686 234.4 548.33 267.236 527.685 294.738C508.752 319.962 481.227 340.013 448.949 342.331C434.234 343.388 419.429 340.49 406.648 332.998C394.914 326.119 385.084 315.759 379.647 303.218C376.721 296.104 375.159 288.503 375.041 280.811C374.715 271.909 375.369 262.96 374.272 254.095C372.512 239.885 365.295 227.489 354.46 218.228C343.513 209.098 330.373 202.983 316.339 200.488C298.863 197.195 280.972 198.34 263.422 200.388C258.937 200.911 254.46 201.494 249.983 202.081C248.096 202.328 248.071 205.331 249.983 205.081Z" fill="#3F3D56"/>
<path d="M517.85 132.449C512.14 138.509 503.84 141.719 495.54 142.359C489.59 142.817 483.61 142.05 477.968 140.105C472.327 138.16 467.145 135.078 462.741 131.051C458.338 127.024 454.808 122.136 452.369 116.69C449.929 111.244 448.633 105.356 448.56 99.3894C448.47 92.6894 449.93 86.0194 449.6 79.3194C448.78 62.7694 437.16 47.7294 438.4 31.1994L446.36 33.6694C441.02 31.9894 435.68 30.3094 430.34 28.6294C428.508 28.1401 426.752 27.4033 425.12 26.4394C420.46 23.3794 419.09 16.6294 421.33 11.5194C423.58 6.40939 428.769 2.98939 434.24 1.84939C437.962 1.14263 441.786 1.16641 445.5 1.9194C447.277 2.23627 449.033 2.66039 450.76 3.1894C455.793 1.53057 461.138 1.03945 466.39 1.75329C471.641 2.46712 476.661 4.36717 481.07 7.3094C486.427 10.9923 490.646 16.1019 493.25 22.0594C494.914 25.8177 495.886 29.8456 496.12 33.9493C496.72 45.1093 491.96 56.6693 492.64 67.4493C492.786 70.3977 493.446 73.298 494.59 76.0193C500.49 89.7493 519.04 95.1793 523.69 109.389C526.28 117.299 523.56 126.389 517.85 132.449Z" fill="#2F2E41"/>
<path d="M522.187 347.025L514.529 354.962L480.27 329.2L491.573 317.486L522.187 347.025Z" fill="#FFB8B8"/>
<path d="M541.378 357.296L535.944 362.928L532.49 366.508L518.077 381.446C517.387 382.163 516.485 382.639 515.504 382.806C514.523 382.974 513.515 382.823 512.626 382.377C511.736 381.93 511.013 381.211 510.562 380.325C510.11 379.438 509.954 378.43 510.115 377.449L513.386 357.571L508.01 352.384L520.865 340.56L541.378 357.296Z" fill="#2F2E41"/>
<path d="M448.577 362.145L438.648 366.948L415.399 330.936L430.053 323.848L448.577 362.145Z" fill="#FFB8B8"/>
<path d="M463.037 378.414L455.992 381.822L451.514 383.988L432.828 393.027C431.932 393.461 430.922 393.596 429.943 393.414C428.965 393.233 428.071 392.743 427.391 392.017C426.71 391.291 426.28 390.366 426.163 389.378C426.045 388.39 426.246 387.39 426.737 386.525L436.674 369.001L433.421 362.276L449.569 355.621L463.037 378.414Z" fill="#2F2E41"/>
<path d="M464.771 163.131C464.771 163.131 473.691 178.941 480.281 187.451C486.369 195.157 485.585 199.25 484.799 209.039C484.159 216.039 485.431 229.221 479.181 235.201L476.449 296.269L510.141 334.881C510.141 334.881 496.519 354.239 495.799 347.039L445.921 300.661L418.651 201.691L423.368 165.058L464.771 163.131Z" fill="#2F2E41"/>
<path d="M479.577 182.143C479.577 182.143 479.777 200.295 481.452 210.927C483.074 220.613 480.972 230.555 475.567 238.755C471.634 244.58 465.841 250.011 457.483 252.24L428.904 299.127L444.779 344.552C444.779 344.552 421.962 357.696 424.799 351.039L397.181 291.978L420.585 193.713L442.368 163.885L479.577 182.143Z" fill="#2F2E41"/>
<path d="M462.775 73.7305L462.645 73.6005L439.337 74.0768L424.622 113.309C425.8 145.039 420.024 158.666 420.024 158.666L422.521 168.137L423.546 170.919L489.036 200.019L480.052 130.789C482.101 120.591 481.595 110.045 478.58 100.09C475.566 90.1344 470.136 81.0792 462.775 73.7305Z" fill="#F23C3C"/>
<path d="M362.865 153.907C363.656 154.147 364.49 154.211 365.308 154.095C366.126 153.978 366.909 153.684 367.601 153.232C368.293 152.78 368.877 152.182 369.313 151.48C369.749 150.778 370.026 149.989 370.124 149.168L389.749 144.877L382.273 137.591L364.782 142.783C363.393 142.71 362.025 143.149 360.938 144.017C359.85 144.885 359.119 146.122 358.883 147.493C358.647 148.864 358.921 150.275 359.655 151.457C360.389 152.639 361.532 153.51 362.865 153.907Z" fill="#FFB8B8"/>
<path d="M375.031 148.283L374.083 136.493L409.763 126.789L436.316 93.8293C437.628 92.2002 439.283 90.88 441.163 89.9625C443.043 89.0449 445.103 88.5525 447.194 88.5203C449.286 88.488 451.359 88.9166 453.267 89.7757C455.175 90.6348 456.87 91.9033 458.232 93.4912C460.689 96.3619 461.907 100.09 461.619 103.858C461.33 107.626 459.559 111.125 456.694 113.588L420.51 144.627L375.031 148.283Z" fill="#F23C3C"/>
<path d="M513.879 201.731C514.198 200.968 514.346 200.145 514.312 199.319C514.278 198.493 514.064 197.685 513.684 196.951C513.304 196.217 512.768 195.576 512.113 195.071C511.458 194.567 510.701 194.213 509.894 194.033L507.597 174.075L499.597 180.781L503.004 198.705C502.792 200.08 503.091 201.485 503.846 202.654C504.6 203.823 505.757 204.675 507.098 205.048C508.438 205.421 509.869 205.289 511.119 204.678C512.369 204.066 513.351 203.018 513.879 201.731Z" fill="#FFB8B8"/>
<path d="M509.507 189.062L497.681 188.82L491.612 152.345L461.489 122.614C460 121.144 458.853 119.365 458.129 117.402C457.405 115.439 457.122 113.341 457.3 111.256C457.478 109.172 458.113 107.152 459.16 105.341C460.206 103.529 461.639 101.97 463.355 100.775C466.459 98.6185 470.29 97.7814 474.01 98.4471C477.73 99.1127 481.033 101.227 483.196 104.325L510.441 143.445L509.507 189.062Z" fill="#F23C3C"/>
<path d="M427.68 29.0357C429.353 22.8792 433.303 17.5888 438.731 14.2364C444.159 10.884 450.659 9.72011 456.913 10.9806C463.167 12.2412 468.708 15.8318 472.413 21.0251C476.119 26.2185 477.712 32.6261 476.869 38.9501C476.027 45.274 472.812 51.0413 467.877 55.0835C462.941 59.1258 456.653 61.1408 450.287 60.7203C443.921 60.2997 437.953 57.4751 433.592 52.8187C429.231 48.1623 426.803 42.0223 426.8 35.6425C426.798 33.4109 427.094 31.1891 427.68 29.0357Z" fill="#FFB8B8"/>
<path d="M492.64 67.4494L452.78 59.2994C451.33 51.6494 464.72 41.3394 468.2 28.7694C461.98 28.0194 453.65 26.7694 446.44 25.1394C439.23 23.4994 433.13 21.4894 431.37 19.1994C432.648 12.9628 436.35 7.48884 441.662 3.98048C446.974 0.472122 453.462 -0.783566 459.7 0.489378L464.59 1.48938C464.75 1.51938 464.91 1.55938 465.07 1.59938C471.064 2.94056 476.311 6.53991 479.72 11.6494C484.728 14.4181 489.29 17.9277 493.25 22.0594C494.914 25.8177 495.886 29.8456 496.12 33.9493C496.72 45.1094 491.96 56.6694 492.64 67.4494Z" fill="#2F2E41"/>
<path d="M782.67 437.906C782.67 438.062 782.64 438.217 782.58 438.362C782.521 438.506 782.433 438.638 782.322 438.748C782.212 438.859 782.081 438.946 781.936 439.006C781.791 439.066 781.636 439.096 781.48 439.096H54.19C53.8744 439.096 53.5717 438.97 53.3486 438.747C53.1254 438.524 53 438.221 53 437.906C53 437.59 53.1254 437.287 53.3486 437.064C53.5717 436.841 53.8744 436.716 54.19 436.716H781.48C781.636 436.715 781.791 436.746 781.936 436.805C782.081 436.865 782.212 436.953 782.322 437.063C782.433 437.174 782.521 437.305 782.58 437.45C782.64 437.594 782.67 437.749 782.67 437.906Z" fill="#3F3D56"/>
</g>
<defs>
<clipPath id="clip0_53_113">
<rect width="864.67" height="439.096" fill="white"/>
</clipPath>
</defs>
</svg>
