<svg width="500" height="500" viewBox="0 0 500 500" fill="none" xmlns="http://www.w3.org/2000/svg">
<path d="M319.667 20.8333H180.334C92.2441 20.8333 20.8335 92.2439 20.8335 180.333V319.667C20.8335 407.756 92.2441 479.167 180.334 479.167H319.667C407.756 479.167 479.167 407.756 479.167 319.667V180.333C479.167 92.2439 407.756 20.8333 319.667 20.8333Z" fill="#F8DE40"/>
<path d="M479.167 290.375C450.839 332.798 412.356 367.467 367.217 391.229C322.078 414.992 271.716 427.095 220.708 426.438C105.25 426.438 83.9792 405.604 30.25 373.75C41.3901 404.622 61.7779 431.308 88.6352 450.172C115.492 469.037 147.513 479.161 180.333 479.167H319.667C361.969 479.167 402.538 462.362 432.45 432.45C462.362 402.538 479.167 361.969 479.167 319.667V290.375Z" fill="#E7C930"/>
<path d="M400 287.375C374.696 282.245 352.178 267.948 336.771 247.229C328.785 237.822 317.857 231.387 305.757 228.966C293.657 226.546 281.094 228.283 270.104 233.896C261.442 240.025 254.516 248.293 250 257.896C245.483 248.3 238.565 240.034 229.917 233.896C218.925 228.291 206.365 226.558 194.266 228.978C182.168 231.397 171.24 237.828 163.25 247.229C147.842 267.956 125.314 282.255 100 287.375C98.3802 287.397 96.7949 287.846 95.4048 288.678C94.0147 289.509 92.8693 290.694 92.0845 292.111C91.2998 293.528 90.9037 295.128 90.9364 296.747C90.9692 298.367 91.4295 299.949 92.2709 301.333C99.6954 314.129 110.683 324.487 123.893 331.146C137.103 337.805 151.965 340.476 166.667 338.833C216.125 335.938 240.25 318.437 250 300.646C259.708 318.437 283.833 335.938 333.333 338.833C348.09 340.484 363.008 337.792 376.257 331.086C389.506 324.38 400.509 313.953 407.917 301.083C408.717 299.694 409.137 298.118 409.136 296.514C409.135 294.911 408.712 293.336 407.91 291.947C407.108 290.558 405.955 289.405 404.567 288.602C403.178 287.8 401.604 287.377 400 287.375Z" fill="#864E20"/>
<path d="M146.979 152.354C139.778 152.346 132.736 154.474 126.745 158.469C120.754 162.464 116.082 168.147 113.322 174.798C110.561 181.449 109.836 188.769 111.237 195.833C112.639 202.896 116.104 209.385 121.194 214.478C126.285 219.572 132.772 223.041 139.834 224.446C146.897 225.851 154.218 225.13 160.87 222.373C167.523 219.617 173.208 214.949 177.207 208.96C181.205 202.971 183.337 195.93 183.333 188.729C183.328 179.087 179.496 169.841 172.68 163.022C165.865 156.202 156.621 152.365 146.979 152.354Z" fill="white"/>
<path d="M146.979 177.292C144.711 177.288 142.493 177.957 140.605 179.214C138.718 180.472 137.246 182.261 136.376 184.355C135.506 186.45 135.278 188.756 135.719 190.98C136.161 193.205 137.252 195.249 138.856 196.852C140.46 198.456 142.503 199.548 144.728 199.989C146.953 200.431 149.258 200.202 151.353 199.332C153.447 198.462 155.237 196.99 156.494 195.103C157.752 193.215 158.421 190.997 158.417 188.729C158.417 185.696 157.212 182.787 155.067 180.642C152.922 178.497 150.013 177.292 146.979 177.292Z" fill="#864E20"/>
<path d="M353.292 152.354C346.088 152.334 339.04 154.451 333.041 158.439C327.041 162.426 322.36 168.105 319.59 174.754C316.82 181.404 316.085 188.727 317.48 195.794C318.874 202.862 322.334 209.356 327.422 214.456C332.51 219.556 338.997 223.031 346.061 224.441C353.126 225.852 360.45 225.134 367.106 222.379C373.762 219.624 379.451 214.956 383.452 208.966C387.454 202.976 389.587 195.933 389.583 188.729C389.578 179.098 385.755 169.862 378.953 163.044C372.15 156.226 362.923 152.382 353.292 152.354Z" fill="white"/>
<path d="M353.271 177.292C351.004 177.292 348.788 177.964 346.903 179.224C345.018 180.484 343.549 182.275 342.683 184.37C341.816 186.465 341.59 188.77 342.034 190.993C342.478 193.216 343.571 195.258 345.176 196.86C346.781 198.461 348.824 199.551 351.048 199.991C353.272 200.43 355.577 200.201 357.67 199.33C359.764 198.46 361.552 196.988 362.808 195.101C364.065 193.214 364.733 190.996 364.729 188.729C364.724 185.694 363.514 182.785 361.366 180.64C359.217 178.496 356.306 177.292 353.271 177.292Z" fill="#864E20"/>
</svg>
