<svg width="500" height="500" viewBox="0 0 500 500" fill="none" xmlns="http://www.w3.org/2000/svg">
<path d="M319.667 20.8333H180.334C92.2441 20.8333 20.8335 92.2439 20.8335 180.333V319.667C20.8335 407.756 92.2441 479.167 180.334 479.167H319.667C407.756 479.167 479.167 407.756 479.167 319.667V180.333C479.167 92.2439 407.756 20.8333 319.667 20.8333Z" fill="#F8DE40"/>
<path d="M479.167 290.375C450.839 332.798 412.356 367.467 367.217 391.229C322.078 414.992 271.716 427.095 220.708 426.438C105.25 426.438 83.9792 405.604 30.25 373.75C41.3901 404.622 61.7779 431.308 88.6352 450.172C115.492 469.037 147.513 479.161 180.333 479.167H319.667C361.969 479.167 402.538 462.362 432.45 432.45C462.362 402.538 479.167 361.969 479.167 319.667V290.375Z" fill="#E7C930"/>
<path d="M400 287.375C374.696 282.245 352.178 267.948 336.771 247.229C328.785 237.822 317.857 231.387 305.757 228.966C293.657 226.546 281.094 228.283 270.104 233.896C261.442 240.025 254.516 248.293 250 257.896C245.483 248.3 238.565 240.034 229.917 233.896C218.925 228.291 206.365 226.558 194.266 228.978C182.168 231.397 171.24 237.828 163.25 247.229C147.842 267.956 125.314 282.255 100 287.375C98.3802 287.397 96.7949 287.846 95.4048 288.678C94.0147 289.509 92.8693 290.694 92.0845 292.111C91.2998 293.528 90.9037 295.128 90.9364 296.747C90.9692 298.367 91.4295 299.949 92.2709 301.333C99.6954 314.129 110.683 324.487 123.893 331.146C137.103 337.805 151.965 340.476 166.667 338.833C216.125 335.938 240.25 318.437 250 300.646C259.708 318.437 283.833 335.938 333.333 338.833C348.09 340.484 363.008 337.792 376.257 331.086C389.506 324.38 400.509 313.953 407.917 301.083C408.717 299.694 409.137 298.118 409.136 296.514C409.135 294.911 408.712 293.336 407.91 291.947C407.108 290.558 405.955 289.405 404.567 288.602C403.178 287.8 401.604 287.377 400 287.375Z" fill="#864E20"/>
<path d="M199.583 145.479C193.392 140.328 185.478 137.716 177.437 138.168C169.396 138.621 161.825 142.104 156.25 147.917L146.896 157.292L137.5 147.917C131.909 142.103 124.32 138.627 116.266 138.19C108.212 137.753 100.291 140.388 94.1041 145.563C91.004 148.345 88.5032 151.73 86.7544 155.51C85.0055 159.291 84.0453 163.389 83.9322 167.553C83.8191 171.717 84.5556 175.86 86.0967 179.73C87.6378 183.6 89.9512 187.116 92.8958 190.063L139.167 236.25C140.17 237.266 141.366 238.073 142.684 238.623C144.001 239.174 145.415 239.457 146.844 239.457C148.272 239.457 149.686 239.174 151.004 238.623C152.322 238.073 153.517 237.266 154.521 236.25L200.771 189.979C203.719 187.036 206.037 183.522 207.581 179.652C209.126 175.782 209.865 171.639 209.754 167.474C209.643 163.309 208.684 159.21 206.935 155.428C205.186 151.647 202.685 148.261 199.583 145.479ZM405.896 145.479C399.7 140.31 391.773 137.687 383.717 138.139C375.661 138.592 368.078 142.086 362.5 147.917L353.146 157.292L343.75 147.917C338.159 142.103 330.57 138.627 322.516 138.19C314.462 137.753 306.541 140.388 300.354 145.563C297.253 148.345 294.751 151.73 293.002 155.512C291.254 159.293 290.294 163.392 290.183 167.557C290.072 171.722 290.811 175.866 292.356 179.735C293.901 183.605 296.218 187.119 299.167 190.063L345.437 236.333C346.439 237.349 347.633 238.155 348.949 238.705C350.265 239.256 351.678 239.539 353.104 239.539C354.531 239.539 355.943 239.256 357.259 238.705C358.575 238.155 359.769 237.349 360.771 236.333L407.042 190.063C410.003 187.119 412.332 183.602 413.887 179.726C415.441 175.85 416.187 171.698 416.08 167.524C415.973 163.35 415.014 159.241 413.263 155.451C411.512 151.66 409.005 148.267 405.896 145.479Z" fill="#F06880"/>
</svg>
