<svg width="500" height="500" viewBox="0 0 500 500" fill="none" xmlns="http://www.w3.org/2000/svg">
<path d="M319.667 20.8333H180.334C92.2441 20.8333 20.8335 92.2439 20.8335 180.333V319.667C20.8335 407.756 92.2441 479.167 180.334 479.167H319.667C407.756 479.167 479.167 407.756 479.167 319.667V180.333C479.167 92.2439 407.756 20.8333 319.667 20.8333Z" fill="#F8DE40"/>
<path d="M479.167 290.375C450.839 332.798 412.356 367.467 367.217 391.229C322.078 414.992 271.716 427.095 220.708 426.438C105.25 426.438 83.9792 405.604 30.25 373.75C41.3901 404.622 61.7779 431.308 88.6352 450.172C115.492 469.037 147.513 479.161 180.333 479.167H319.667C361.969 479.167 402.538 462.362 432.45 432.45C462.362 402.538 479.167 361.969 479.167 319.667V290.375Z" fill="#E7C930"/>
<path d="M400 287.375C374.696 282.245 352.178 267.948 336.771 247.229C328.785 237.822 317.857 231.387 305.757 228.966C293.657 226.546 281.094 228.283 270.104 233.896C261.442 240.025 254.516 248.293 250 257.896C245.483 248.3 238.565 240.034 229.917 233.896C218.925 228.291 206.365 226.558 194.266 228.978C182.168 231.397 171.24 237.828 163.25 247.229C147.842 267.956 125.314 282.255 100 287.375C98.3802 287.397 96.7949 287.846 95.4048 288.678C94.0147 289.509 92.8693 290.694 92.0845 292.111C91.2998 293.528 90.9037 295.128 90.9364 296.747C90.9692 298.367 91.4295 299.949 92.2709 301.333C99.6954 314.129 110.683 324.487 123.893 331.146C137.103 337.805 151.965 340.476 166.667 338.833C216.125 335.937 240.25 318.437 250 300.646C259.708 318.437 283.833 335.937 333.333 338.833C348.09 340.484 363.008 337.792 376.257 331.086C389.506 324.38 400.509 313.953 407.917 301.083C408.717 299.694 409.137 298.118 409.136 296.514C409.135 294.911 408.712 293.336 407.91 291.947C407.108 290.558 405.955 289.405 404.567 288.602C403.178 287.8 401.604 287.377 400 287.375ZM185.563 172.396C185.543 171.598 185.272 170.826 184.788 170.191C184.305 169.556 183.633 169.089 182.869 168.859C182.104 168.628 181.287 168.644 180.532 168.905C179.778 169.166 179.125 169.659 178.667 170.312C175.548 175.005 171.516 179.023 166.813 182.125C160.903 186.058 153.963 188.157 146.865 188.157C139.766 188.157 132.826 186.058 126.917 182.125C122.198 179.009 118.153 174.978 115.021 170.271C114.563 169.617 113.91 169.124 113.155 168.863C112.401 168.602 111.583 168.586 110.819 168.817C110.055 169.048 109.383 169.514 108.899 170.149C108.415 170.784 108.144 171.556 108.125 172.354C108.041 180.064 110.583 187.573 115.333 193.646C119.089 198.413 123.876 202.267 129.336 204.916C134.796 207.566 140.785 208.942 146.854 208.942C152.923 208.942 158.913 207.566 164.372 204.916C169.832 202.267 174.62 198.413 178.375 193.646C183.1 187.576 185.633 180.087 185.563 172.396ZM391.875 172.396C391.856 171.598 391.585 170.826 391.101 170.191C390.617 169.556 389.945 169.089 389.181 168.859C388.417 168.628 387.599 168.644 386.845 168.905C386.09 169.166 385.437 169.659 384.979 170.312C381.862 175 377.838 179.016 373.146 182.125C367.232 186.058 360.289 188.156 353.187 188.156C346.086 188.156 339.143 186.058 333.229 182.125C328.511 179.009 324.466 174.978 321.333 170.271C320.875 169.617 320.222 169.124 319.468 168.863C318.713 168.602 317.896 168.586 317.131 168.817C316.367 169.048 315.695 169.514 315.212 170.149C314.728 170.784 314.457 171.556 314.438 172.354C314.353 180.064 316.896 187.573 321.646 193.646C325.401 198.413 330.189 202.267 335.648 204.916C341.108 207.566 347.098 208.942 353.167 208.942C359.235 208.942 365.225 207.566 370.685 204.916C376.145 202.267 380.932 198.413 384.688 193.646C389.412 187.576 391.946 180.087 391.875 172.396Z" fill="#864E20"/>
</svg>
