<svg width="500" height="500" viewBox="0 0 500 500" fill="none" xmlns="http://www.w3.org/2000/svg">
<path d="M319.667 20.8333H180.334C92.2441 20.8333 20.8335 92.2439 20.8335 180.333V319.667C20.8335 407.756 92.2441 479.167 180.334 479.167H319.667C407.756 479.167 479.167 407.756 479.167 319.667V180.333C479.167 92.2439 407.756 20.8333 319.667 20.8333Z" fill="#F8DE40"/>
<path d="M479.167 290.375C450.839 332.798 412.356 367.467 367.217 391.229C322.078 414.992 271.716 427.095 220.708 426.438C105.25 426.438 83.9792 405.604 30.25 373.75C41.3901 404.622 61.7779 431.308 88.6352 450.172C115.492 469.037 147.513 479.161 180.333 479.167H319.667C361.969 479.167 402.538 462.362 432.45 432.45C462.362 402.538 479.167 361.969 479.167 319.667V290.375Z" fill="#E7C930"/>
<path d="M400 287.375C374.696 282.245 352.178 267.948 336.771 247.229C328.785 237.822 317.857 231.387 305.757 228.966C293.657 226.546 281.094 228.283 270.104 233.896C261.442 240.025 254.516 248.293 250 257.896C245.483 248.3 238.565 240.034 229.917 233.896C218.925 228.291 206.365 226.558 194.266 228.978C182.168 231.397 171.24 237.828 163.25 247.229C147.842 267.956 125.314 282.255 100 287.375C98.3802 287.397 96.7949 287.846 95.4048 288.678C94.0147 289.509 92.8693 290.694 92.0845 292.111C91.2998 293.528 90.9037 295.128 90.9364 296.747C90.9692 298.367 91.4295 299.949 92.2709 301.333C99.6954 314.129 110.683 324.487 123.893 331.146C137.103 337.805 151.965 340.476 166.667 338.833C216.125 335.938 240.25 318.437 250 300.646C259.708 318.437 283.833 335.938 333.333 338.833C348.09 340.484 363.008 337.792 376.257 331.086C389.506 324.38 400.509 313.953 407.917 301.083C408.717 299.694 409.137 298.118 409.136 296.514C409.135 294.911 408.712 293.336 407.91 291.947C407.108 290.558 405.955 289.405 404.567 288.602C403.178 287.8 401.604 287.377 400 287.375ZM185.563 193.354C185.543 194.152 185.272 194.924 184.788 195.559C184.305 196.194 183.633 196.66 182.869 196.891C182.104 197.122 181.287 197.106 180.532 196.845C179.778 196.584 179.125 196.091 178.667 195.437C175.548 190.745 171.516 186.727 166.813 183.625C160.903 179.692 153.963 177.593 146.865 177.593C139.766 177.593 132.826 179.692 126.917 183.625C122.198 186.741 118.153 190.772 115.021 195.479C114.563 196.133 113.91 196.626 113.155 196.887C112.401 197.148 111.583 197.164 110.819 196.933C110.055 196.702 109.383 196.236 108.899 195.601C108.415 194.966 108.144 194.194 108.125 193.396C108.041 185.686 110.583 178.177 115.333 172.104C119.089 167.337 123.876 163.483 129.336 160.834C134.796 158.184 140.785 156.808 146.854 156.808C152.923 156.808 158.913 158.184 164.372 160.834C169.832 163.483 174.62 167.337 178.375 172.104C183.1 178.174 185.633 185.663 185.563 193.354ZM391.875 193.354C391.856 194.152 391.585 194.924 391.101 195.559C390.617 196.194 389.945 196.66 389.181 196.891C388.417 197.122 387.599 197.106 386.845 196.845C386.09 196.584 385.437 196.091 384.979 195.437C381.862 190.75 377.838 186.734 373.146 183.625C367.232 179.692 360.289 177.594 353.187 177.594C346.086 177.594 339.143 179.692 333.229 183.625C328.511 186.741 324.466 190.772 321.333 195.479C320.875 196.133 320.222 196.626 319.468 196.887C318.713 197.148 317.896 197.164 317.131 196.933C316.367 196.702 315.695 196.236 315.212 195.601C314.728 194.966 314.457 194.194 314.438 193.396C314.353 185.686 316.896 178.177 321.646 172.104C325.401 167.337 330.189 163.483 335.648 160.834C341.108 158.184 347.098 156.808 353.167 156.808C359.235 156.808 365.225 158.184 370.685 160.834C376.145 163.483 380.932 167.337 384.688 172.104C389.412 178.174 391.946 185.663 391.875 193.354Z" fill="#864E20"/>
</svg>
