<svg width="800" height="575" viewBox="0 0 800 575" fill="none" xmlns="http://www.w3.org/2000/svg">
<g clip-path="url(#clip0_85_973)">
<path d="M601.988 136.641H598.677V50.0923C598.677 36.807 593.145 24.0659 583.3 14.6717C573.454 5.27759 560.1 1.67635e-05 546.177 1.8008e-10H353.997C347.103 -1.76381e-05 340.276 1.29564 333.906 3.813C327.537 6.33036 321.749 10.0201 316.874 14.6716C311.999 19.3231 308.132 24.8452 305.493 30.9227C302.855 37.0002 301.497 43.514 301.497 50.0922V524.908C301.497 531.486 302.855 538 305.493 544.077C308.132 550.155 311.999 555.677 316.874 560.328C321.749 564.98 327.537 568.67 333.906 571.187C340.276 573.704 347.103 575 353.997 575H546.176C560.1 575 573.454 569.723 583.299 560.328C593.145 550.934 598.676 538.193 598.676 524.908V198.249H601.988L601.988 136.641Z" fill="#3F3D56"/>
<path d="M548.296 13.0323H523.21C524.364 15.731 524.804 18.6589 524.492 21.5581C524.181 24.4574 523.126 27.239 521.423 29.658C519.719 32.0769 517.418 34.059 514.722 35.4295C512.026 36.8 509.019 37.517 505.964 37.5172H395.867C392.812 37.517 389.805 36.8001 387.109 35.4295C384.413 34.059 382.112 32.0769 380.408 29.658C378.705 27.239 377.65 24.4574 377.339 21.5581C377.027 18.6589 377.467 15.731 378.621 13.0323H355.191C344.793 13.0323 334.82 16.9736 327.468 23.989C320.115 31.0044 315.984 40.5193 315.984 50.4407V524.559C315.984 529.472 316.998 534.336 318.969 538.875C320.939 543.413 323.827 547.537 327.468 551.011C331.108 554.485 335.43 557.24 340.187 559.12C344.944 561 350.042 561.968 355.191 561.968H548.296C553.444 561.968 558.543 561 563.299 559.12C568.056 557.24 572.378 554.485 576.019 551.011C579.66 547.537 582.547 543.414 584.518 538.875C586.488 534.336 587.502 529.472 587.502 524.559V50.4406C587.502 45.5281 586.488 40.6637 584.518 36.1251C582.547 31.5865 579.66 27.4626 576.019 23.989C572.378 20.5153 568.056 17.7598 563.299 15.8799C558.543 13.9999 553.444 13.0323 548.296 13.0323Z" fill="white"/>
<path d="M491.744 218.62C510.951 218.62 526.522 217.205 526.522 215.46C526.522 213.715 510.951 212.3 491.744 212.3C472.537 212.3 456.966 213.715 456.966 215.46C456.966 217.205 472.537 218.62 491.744 218.62Z" fill="#E6E6E6"/>
<path d="M799.895 78.9033H479.728V179.189H491.855V205.418L519.344 179.189H799.895V78.9033Z" fill="#F23C3C"/>
<path d="M660.951 112.864H515.362V117.079H660.951V112.864Z" fill="white"/>
<path d="M769.111 127.447H515.362V131.663H769.111V127.447Z" fill="white"/>
<path d="M768.862 142.03H515.362V146.246H768.862V142.03Z" fill="white"/>
<path d="M718.099 381.376H462.531V461.427H472.212V482.364L494.154 461.427H718.099V381.376Z" fill="#F23C3C"/>
<path d="M607.19 408.484H490.977V411.85H607.19V408.484Z" fill="white"/>
<path d="M693.527 420.125H490.977V423.49H693.527V420.125Z" fill="white"/>
<path d="M693.329 431.766H490.977V435.131H693.329V431.766Z" fill="white"/>
<path d="M472.123 492.903C487.455 492.903 499.884 491.774 499.884 490.38C499.884 488.987 487.455 487.858 472.123 487.858C456.791 487.858 444.362 488.987 444.362 490.38C444.362 491.774 456.791 492.903 472.123 492.903Z" fill="#E6E6E6"/>
<path d="M395.69 335.551C414.898 335.551 430.468 334.136 430.468 332.391C430.468 330.646 414.898 329.231 395.69 329.231C376.483 329.231 360.912 330.646 360.912 332.391C360.912 334.136 376.483 335.551 395.69 335.551Z" fill="#E6E6E6"/>
<path d="M182.531 236.149H407.684V306.674H399.155V325.118L379.824 306.674H182.531V236.149Z" fill="#F23C3C"/>
<path d="M308.267 259.489H205.885V262.453H308.267V259.489Z" fill="white"/>
<path d="M384.329 269.744H205.885V272.709H384.329V269.744Z" fill="white"/>
<path d="M384.154 280H205.885V282.964H384.154V280Z" fill="white"/>
<path d="M72.855 408.176C73.9346 409.95 75.7084 411.242 77.7862 411.768C79.8641 412.294 82.0757 412.01 83.9347 410.98C85.7936 409.95 87.1476 408.258 87.6986 406.275C88.2497 404.293 87.9528 402.182 86.8733 400.409C86.6466 400.046 86.3914 399.701 86.1099 399.375L92.9283 353.006L93.1325 351.617L94.5175 342.155L94.7216 340.791L93.9669 340.825L80.7567 341.401L77.2142 341.554L76.7703 350.185L74.2578 398.715C72.9451 399.913 72.093 401.497 71.8386 403.214C71.5842 404.93 71.9422 406.678 72.855 408.176Z" fill="#A0616A"/>
<path d="M93.093 352.039L76.3186 350.571C75.4486 350.492 74.6463 350.088 74.0868 349.448C73.5273 348.807 73.256 347.982 73.3319 347.151L76.4432 313.867C76.594 312.251 77.0831 310.68 77.8816 309.247C78.6801 307.813 79.7718 306.548 81.092 305.524C82.4122 304.501 83.9341 303.741 85.5678 303.289C87.2014 302.836 88.9135 302.701 90.6027 302.892C92.292 303.082 93.9241 303.593 95.4024 304.396C96.8808 305.199 98.1754 306.276 99.2095 307.565C100.244 308.854 100.997 310.327 101.423 311.898C101.85 313.469 101.942 315.106 101.695 316.711L96.6648 349.358C96.5492 350.106 96.1559 350.789 95.5565 351.284C94.9571 351.779 94.1915 352.051 93.3991 352.052C93.2979 352.052 93.1956 352.048 93.093 352.039Z" fill="#CCCCCC"/>
<path d="M80.3804 325.148C78.6838 320.562 78.6052 315.574 80.1565 310.942C81.7078 306.31 84.8039 302.289 88.973 299.492C95.2985 295.362 103.954 293.88 113.276 304.468C131.92 325.645 136.803 348.94 136.803 348.94L98.6277 354.87C98.6277 354.87 85.6439 339.728 80.3804 325.148Z" fill="#CCCCCC"/>
<path d="M142.123 563.691H153.007L158.184 523.634L142.121 523.635L142.123 563.691Z" fill="#A0616A"/>
<path d="M173.997 573.334L139.79 573.335L139.789 560.725L163.441 560.724C164.827 560.724 166.2 560.984 167.481 561.49C168.761 561.996 169.925 562.738 170.905 563.673C171.885 564.608 172.663 565.719 173.193 566.941C173.724 568.162 173.997 569.472 173.997 570.795L173.997 573.334Z" fill="#2F2E41"/>
<path d="M52.6387 554.634L62.9727 557.893L81.0656 521.412L65.8138 516.602L52.6387 554.634Z" fill="#A0616A"/>
<path d="M79.7305 573.335L47.2513 563.092L51.3991 551.119L73.8562 558.201C75.1723 558.616 76.3898 559.275 77.4393 560.139C78.4887 561.003 79.3496 562.055 79.9726 563.237C80.5956 564.418 80.9687 565.705 81.0704 567.024C81.1722 568.343 81.0006 569.668 80.5656 570.924L79.7305 573.335Z" fill="#2F2E41"/>
<path d="M114.802 286.44C125.369 280.929 129.252 268.287 123.476 258.205C117.7 248.123 104.451 244.417 93.884 249.929C83.3171 255.44 79.4336 268.082 85.21 278.164C90.9864 288.246 104.235 291.951 114.802 286.44Z" fill="#A0616A"/>
<path d="M123.435 552.54L113.327 488.886C113.219 488.207 112.867 487.584 112.331 487.125C111.796 486.666 111.11 486.398 110.39 486.368C109.671 486.338 108.963 486.548 108.387 486.961C107.811 487.374 107.404 487.965 107.235 488.632L91.8421 549.294C91.5996 550.223 91.0019 551.032 90.1662 551.563C89.3305 552.093 88.3172 552.307 87.3251 552.161L44.8664 545.65C44.3035 545.564 43.7664 545.363 43.2912 545.062C42.8161 544.762 42.414 544.367 42.1118 543.906C41.8097 543.445 41.6146 542.927 41.5396 542.387C41.4646 541.848 41.5115 541.3 41.677 540.779L97.0406 366.623C97.1979 366.128 97.2166 365.601 97.0947 365.097L95.2513 357.476C95.0488 356.649 95.1423 355.782 95.5166 355.012C95.891 354.243 96.5248 353.615 97.3169 353.229C104.856 349.558 123.946 341.928 138.361 350.286C138.828 350.558 139.233 350.919 139.551 351.345C139.868 351.771 140.091 352.254 140.207 352.765L183.457 546.718C183.574 547.245 183.573 547.79 183.454 548.317C183.334 548.844 183.099 549.341 182.763 549.775C182.428 550.209 181.999 550.57 181.507 550.834C181.014 551.098 180.468 551.26 179.905 551.308L127.741 555.765C127.621 555.775 127.502 555.78 127.383 555.78C126.428 555.778 125.505 555.451 124.781 554.856C124.057 554.262 123.579 553.441 123.435 552.54Z" fill="#2F2E41"/>
<path d="M89.8838 253.485C91.5275 252.541 92.9862 251.332 94.1944 249.91C94.7901 249.192 95.1822 248.34 95.333 247.435C95.4837 246.531 95.388 245.604 95.0551 244.745C93.9535 242.427 90.6797 241.692 88.1432 242.483C85.6067 243.273 83.6469 245.169 81.7931 247C80.1601 248.614 78.4805 250.297 77.7058 252.415C76.9312 254.532 77.3292 257.216 79.2558 258.501C81.1465 259.761 83.8649 259.245 85.6835 257.891C87.502 256.537 88.6277 254.528 89.701 252.58L89.8838 253.485Z" fill="#2F2E41"/>
<path d="M82.4993 247.557C82.3784 241.695 75.3753 237.492 69.3274 238.53C63.2794 239.569 58.6305 244.489 56.3035 249.916C51.3868 261.382 55.0777 274.464 59.8151 285.998C64.5525 297.532 70.4151 309.241 69.7241 321.612C69.257 328.299 66.9058 334.741 62.9187 340.258C58.9315 345.776 53.4566 350.163 47.0723 352.957C53.8979 355.909 62.0567 352.86 67.7924 348.258C80.5304 338.037 85.4473 319.842 79.4766 305.019C76.5316 297.708 71.3417 291.453 67.2899 284.642C63.2381 277.83 60.2652 269.802 62.3571 262.229C64.449 254.655 73.3516 248.521 80.9628 251.455L82.4993 247.557Z" fill="#2F2E41"/>
<path d="M105.65 277.416C103.75 274.351 101.831 270.328 105.306 267.649C106.061 267.093 106.926 266.686 107.848 266.454C108.771 266.221 109.733 266.166 110.677 266.293C114.595 266.744 118.86 266.93 122.652 265.572C124.074 265.105 125.383 264.37 126.501 263.411C127.62 262.452 128.525 261.288 129.163 259.989C131.121 255.564 128.67 250.187 124.578 247.39C122.074 245.74 119.116 244.833 116.075 244.782C113.033 244.731 110.043 245.537 107.481 247.101C102.181 244.868 95.75 245.861 90.9351 248.935C86.1202 252.01 82.8254 256.934 81.0355 262.192C79.3868 266.717 79.1029 271.594 80.2162 276.266C81.1122 279.516 82.8158 282.512 85.1829 285.001C87.5499 287.49 90.5107 289.398 93.8144 290.563C95.1015 291.047 96.4992 291.2 97.8676 291.006C99.236 290.813 100.527 290.279 101.611 289.46C101.611 289.46 104.617 286.956 105.557 283.941C106.279 281.626 106.666 279.054 105.65 277.416Z" fill="#2F2E41"/>
<path d="M170.337 295.981C170.228 296.438 170.157 296.903 170.124 297.37L131.987 318.363L122.717 313.271L112.835 325.615L128.327 336.15C129.579 337.002 131.086 337.442 132.622 337.407C134.159 337.371 135.642 336.861 136.848 335.952L176.175 306.35C177.949 306.977 179.882 307.074 181.716 306.627C183.549 306.18 185.197 305.211 186.439 303.849C187.682 302.487 188.46 300.796 188.671 299.002C188.882 297.208 188.515 295.394 187.62 293.804C186.724 292.213 185.342 290.92 183.658 290.097C181.973 289.274 180.066 288.96 178.19 289.196C176.314 289.433 174.557 290.208 173.155 291.42C171.752 292.632 170.769 294.223 170.337 295.981Z" fill="#A0616A"/>
<path d="M130.712 319.357L118.386 334.599C118.035 335.033 117.591 335.389 117.083 335.644C116.575 335.899 116.015 336.047 115.442 336.077C114.868 336.107 114.295 336.018 113.761 335.818C113.227 335.617 112.744 335.309 112.346 334.915L98.3919 321.09C96.0761 319.365 94.5716 316.835 94.2083 314.053C93.845 311.272 94.6525 308.467 96.4538 306.253C98.2551 304.038 100.903 302.596 103.817 302.242C106.731 301.889 109.674 302.652 111.999 304.365L129.5 313.702C130.001 313.969 130.436 314.337 130.774 314.779C131.113 315.221 131.348 315.728 131.463 316.265C131.578 316.801 131.571 317.355 131.441 317.889C131.311 318.423 131.063 318.923 130.712 319.357Z" fill="#CCCCCC"/>
<path d="M256.093 575H1.03682C0.761837 575 0.498118 574.896 0.303677 574.711C0.109236 574.525 0 574.273 0 574.011C0 573.749 0.109236 573.497 0.303677 573.311C0.498118 573.126 0.761837 573.022 1.03682 573.022H256.093C256.368 573.022 256.632 573.126 256.827 573.311C257.021 573.497 257.13 573.749 257.13 574.011C257.13 574.273 257.021 574.525 256.827 574.711C256.632 574.896 256.368 575 256.093 575Z" fill="#3F3D56"/>
</g>
<defs>
<clipPath id="clip0_85_973">
<rect width="799.895" height="575" fill="white"/>
</clipPath>
</defs>
</svg>
