<svg width="200" height="200" viewBox="0 0 200 200" fill="none" xmlns="http://www.w3.org/2000/svg">
<path d="M52.256 60.014C52.6447 60.4733 52.839 60.9503 52.839 61.445C52.839 61.657 52.8213 61.8867 52.786 62.134C52.786 62.346 52.7683 62.5403 52.733 62.717C52.627 63.1057 52.3973 63.4767 52.044 63.83C51.7613 64.042 51.3727 64.201 50.878 64.307C50.6307 64.3777 50.3833 64.4307 50.136 64.466C49.8887 64.5013 49.6237 64.5543 49.341 64.625C49.0937 64.6603 48.8463 64.678 48.599 64.678C48.3517 64.678 48.0867 64.678 47.804 64.678H45.101C44.465 64.7133 43.829 64.731 43.193 64.731C42.5923 64.731 41.9917 64.731 41.391 64.731C41.4263 65.8263 41.444 67.01 41.444 68.282C41.444 69.5187 41.4263 70.9673 41.391 72.628C41.391 74.2887 41.3733 76.2143 41.338 78.405C41.338 80.5957 41.338 83.1397 41.338 86.037V90.065C41.338 90.4183 41.3557 90.6833 41.391 90.86C41.391 91.0013 41.391 91.1427 41.391 91.284C41.391 91.39 41.3733 91.5313 41.338 91.708C41.2673 92.026 41.2143 92.397 41.179 92.821C41.179 92.9977 41.1613 93.1743 41.126 93.351C41.0907 93.4923 41.0377 93.6513 40.967 93.828C40.8257 93.9693 40.755 94.0753 40.755 94.146L40.596 94.464C40.4193 94.8173 40.0837 95.153 39.589 95.471C38.8117 95.8597 37.946 95.948 36.992 95.736C36.3913 95.6653 35.932 95.5063 35.614 95.259C35.296 94.941 35.0663 94.623 34.925 94.305C34.713 93.9163 34.5893 93.5453 34.554 93.192C34.448 92.874 34.395 92.5383 34.395 92.185V64.943C34.183 64.943 33.7413 64.943 33.07 64.943C32.3987 64.943 31.6743 64.943 30.897 64.943C30.155 64.9077 29.4483 64.8723 28.777 64.837C28.1057 64.8017 27.6463 64.7663 27.399 64.731C27.187 64.6957 26.8513 64.6427 26.392 64.572C25.968 64.5013 25.6147 64.4307 25.332 64.36C24.59 64.148 24.007 63.8123 23.583 63.353C23.1943 62.8937 23 62.3813 23 61.816C23 61.604 23 61.392 23 61.18C23 60.968 23.0353 60.7737 23.106 60.597C23.212 60.173 23.4947 59.8197 23.954 59.537C24.0953 59.431 24.3073 59.3073 24.59 59.166C24.908 58.9893 25.2083 58.8657 25.491 58.795C25.915 58.6537 26.445 58.5477 27.081 58.477C27.3637 58.4417 27.6463 58.424 27.929 58.424C28.2117 58.424 28.512 58.424 28.83 58.424C30.0667 58.424 31.2327 58.424 32.328 58.424C33.4587 58.424 34.6423 58.4063 35.879 58.371C37.9283 58.3357 39.96 58.3357 41.974 58.371C44.0233 58.371 46.055 58.4063 48.069 58.477C48.5283 58.5123 48.97 58.5653 49.394 58.636C49.818 58.7067 50.242 58.8303 50.666 59.007C50.984 59.113 51.2843 59.2543 51.567 59.431C51.8497 59.5723 52.0793 59.7667 52.256 60.014ZM84.9347 74.589C85.0053 75.755 84.9877 76.9563 84.8817 78.193C84.811 79.4297 84.6873 80.631 84.5107 81.797C84.1573 83.811 83.5037 85.772 82.5497 87.68C81.5957 89.588 80.2 91.2133 78.3627 92.556C76.4547 93.9693 74.2817 94.941 71.8437 95.471C69.4057 95.9657 66.9853 96.266 64.5827 96.372C63.77 96.4427 62.9397 96.4603 62.0917 96.425C61.279 96.425 60.484 96.3367 59.7067 96.16C59.0707 96.054 58.5937 95.8597 58.2757 95.577C58.099 95.471 57.9577 95.3297 57.8517 95.153C57.7457 94.9763 57.6573 94.7997 57.5867 94.623C57.4807 94.4463 57.3923 94.2697 57.3217 94.093C57.2863 93.881 57.2333 93.669 57.1627 93.457C57.1273 93.2803 57.092 93.1213 57.0567 92.98C57.0567 92.8033 57.0567 92.6443 57.0567 92.503V62.24C57.0567 61.9927 57.0567 61.763 57.0567 61.551C57.0567 61.339 57.092 61.127 57.1627 60.915C57.2333 60.4203 57.3393 60.014 57.4807 59.696C57.622 59.272 57.8163 58.9717 58.0637 58.795C58.2757 58.6183 58.4877 58.4947 58.6997 58.424C58.9117 58.318 59.106 58.2297 59.2827 58.159C59.4947 58.0883 59.7067 58.0883 59.9187 58.159C60.166 58.1943 60.431 58.1413 60.7137 58L69.5647 58.212C71.8967 58.2827 73.9813 58.8303 75.8187 59.855C77.656 60.8443 79.2283 62.1163 80.5357 63.671C81.843 65.2257 82.8677 66.9747 83.6097 68.918C84.3517 70.826 84.7933 72.7163 84.9347 74.589ZM75.0767 84.659C75.748 83.599 76.2427 82.38 76.5607 81.002C76.8787 79.624 77.02 78.2283 76.9847 76.815C76.9493 75.3663 76.755 73.9707 76.4017 72.628C76.0483 71.25 75.5537 70.031 74.9177 68.971C74.423 68.1937 73.787 67.5577 73.0097 67.063C72.2323 66.5683 71.3667 66.1973 70.4127 65.95C69.4587 65.6673 68.434 65.473 67.3387 65.367C66.2787 65.261 65.2363 65.208 64.2117 65.208C64.247 66.2327 64.2647 67.222 64.2647 68.176C64.2647 69.13 64.2647 70.137 64.2647 71.197C64.2293 72.469 64.2117 73.7057 64.2117 74.907C64.2117 76.1083 64.2117 77.2743 64.2117 78.405V89.217C65.307 89.1817 66.3493 89.1287 67.3387 89.058C68.3633 88.952 69.335 88.74 70.2537 88.422C71.2077 88.104 72.0733 87.6623 72.8507 87.097C73.6633 86.4963 74.4053 85.6837 75.0767 84.659ZM119.363 92.291C119.398 92.503 119.416 92.715 119.416 92.927C119.451 93.1037 119.469 93.3157 119.469 93.563C119.469 93.987 119.345 94.3757 119.098 94.729C118.992 94.9057 118.851 95.0823 118.674 95.259C118.497 95.4003 118.285 95.524 118.038 95.63C117.155 96.1247 116.218 96.3013 115.229 96.16C114.734 96.0187 114.293 95.789 113.904 95.471C113.833 95.4003 113.78 95.365 113.745 95.365C113.71 95.3297 113.674 95.2767 113.639 95.206C113.604 95.1707 113.568 95.1353 113.533 95.1C113.498 95.0293 113.445 94.9763 113.374 94.941C113.197 94.7643 113.056 94.6053 112.95 94.464C112.844 94.2873 112.738 94.1107 112.632 93.934C112.561 93.7573 112.473 93.5983 112.367 93.457C112.296 93.2803 112.208 93.1037 112.102 92.927C112.031 92.7857 111.961 92.662 111.89 92.556C111.819 92.4147 111.766 92.2733 111.731 92.132C111.59 91.814 111.501 91.5313 111.466 91.284L110.353 88.687C107.915 88.687 105.477 88.7047 103.039 88.74C100.636 88.74 98.2161 88.7223 95.7781 88.687L94.6651 91.284C94.5945 91.4253 94.5415 91.5667 94.5061 91.708C94.5061 91.8493 94.4708 91.9907 94.4001 92.132C94.3295 92.2733 94.2588 92.4147 94.1881 92.556C94.1528 92.662 94.0998 92.7857 94.0291 92.927C93.9231 93.1037 93.8171 93.2803 93.7111 93.457C93.6405 93.5983 93.5521 93.7573 93.4461 93.934C93.3755 94.1107 93.2871 94.2873 93.1811 94.464C93.0751 94.6053 92.9338 94.7643 92.7571 94.941C92.6865 94.9763 92.6335 95.0293 92.5981 95.1C92.5628 95.1353 92.5275 95.1707 92.4921 95.206C92.4568 95.2767 92.4215 95.3297 92.3861 95.365C92.3508 95.365 92.2978 95.4003 92.2271 95.471C91.8385 95.789 91.3968 96.0187 90.9021 96.16C89.9128 96.3013 88.9765 96.1247 88.0931 95.63C87.8458 95.524 87.6338 95.4003 87.4571 95.259C87.2805 95.0823 87.1391 94.9057 87.0331 94.729C86.7858 94.3757 86.6621 93.987 86.6621 93.563C86.6621 93.3157 86.6621 93.1037 86.6621 92.927C86.6975 92.715 86.7328 92.503 86.7681 92.291C86.8388 91.973 86.9271 91.655 87.0331 91.337C87.1391 91.019 87.1921 90.86 87.1921 90.86L98.2161 63.724L98.5341 62.876C98.6048 62.664 98.6931 62.4697 98.7991 62.293C98.9051 62.1163 98.9935 61.9043 99.0641 61.657C99.2408 61.1977 99.4351 60.7913 99.6471 60.438C99.7531 60.226 99.8768 60.0317 100.018 59.855C100.159 59.6783 100.301 59.5017 100.442 59.325C100.654 59.0423 100.954 58.8127 101.343 58.636C101.838 58.4593 102.403 58.371 103.039 58.371C103.71 58.371 104.293 58.4593 104.788 58.636C105.177 58.8127 105.477 59.0423 105.689 59.325C105.936 59.643 106.201 60.014 106.484 60.438C106.696 60.7913 106.89 61.1977 107.067 61.657C107.138 61.9043 107.226 62.1163 107.332 62.293C107.438 62.4697 107.526 62.664 107.597 62.876L107.915 63.724L118.939 90.86C118.939 90.86 118.992 91.019 119.098 91.337C119.204 91.655 119.292 91.973 119.363 92.291ZM106.802 79.306C106.343 78.2813 105.866 77.2213 105.371 76.126C104.912 75.0307 104.417 73.9177 103.887 72.787C103.746 72.469 103.604 72.151 103.463 71.833C103.322 71.4797 103.18 71.144 103.039 70.826C102.933 71.144 102.809 71.4797 102.668 71.833C102.527 72.151 102.385 72.469 102.244 72.787C101.714 73.9177 101.202 75.0307 100.707 76.126C100.248 77.2213 99.7885 78.2813 99.3291 79.306L98.3751 81.638H107.756L106.802 79.306Z" fill="#FEFCFC"/>
<path d="M130.929 79.465L130.823 91.973V92.503C130.823 92.715 130.77 93.033 130.664 93.457C130.629 93.6337 130.576 93.828 130.505 94.04C130.434 94.2167 130.364 94.411 130.293 94.623C130.116 95.047 129.869 95.365 129.551 95.577C129.268 95.8597 128.809 96.054 128.173 96.16C127.184 96.372 126.283 96.2837 125.47 95.895C125.117 95.683 124.781 95.3297 124.463 94.835C124.392 94.6937 124.357 94.5877 124.357 94.517L124.198 94.199C124.127 94.0223 124.074 93.8457 124.039 93.669C124.004 93.457 123.968 93.245 123.933 93.033C123.933 92.8563 123.915 92.6797 123.88 92.503C123.845 92.3263 123.809 92.1497 123.774 91.973C123.739 91.6903 123.739 91.39 123.774 91.072V90.277L123.827 86.09L123.933 78.299C123.968 77.1683 123.986 76.0023 123.986 74.801V71.091C123.951 69.819 123.933 68.6883 123.933 67.699C123.968 66.7097 124.021 65.5967 124.092 64.36V64.148C124.127 63.7947 124.145 63.4413 124.145 63.088C124.145 62.6993 124.163 62.3107 124.198 61.922C124.233 61.5687 124.286 61.233 124.357 60.915C124.463 60.5617 124.604 60.2083 124.781 59.855C124.887 59.5723 125.028 59.3427 125.205 59.166C125.382 58.954 125.594 58.7597 125.841 58.583C126.406 58.3003 126.972 58.159 127.537 58.159C127.82 58.159 128.067 58.1767 128.279 58.212C128.491 58.212 128.703 58.2297 128.915 58.265C129.339 58.3003 129.745 58.5123 130.134 58.901C130.417 59.1483 130.611 59.431 130.717 59.749C130.894 60.2083 131 60.6147 131.035 60.968C131.07 61.2153 131.088 61.445 131.088 61.657V62.293V64.466L130.982 73.211L130.929 79.465Z" fill="#FEFCFC"/>
<path d="M142.392 76.696C142.392 92.4227 136.781 106.839 127.451 118.051C124.458 121.647 121.084 124.914 117.389 127.788C106.43 136.314 92.6561 141.392 77.696 141.392C41.9654 141.392 13 112.427 13 76.696C13 40.9654 41.9654 12 77.696 12C113.427 12 142.392 40.9654 142.392 76.696ZM25.9392 76.696C25.9392 105.281 49.1115 128.453 77.696 128.453C106.281 128.453 129.453 105.281 129.453 76.696C129.453 48.1115 106.281 24.9392 77.696 24.9392C49.1115 24.9392 25.9392 48.1115 25.9392 76.696Z" fill="#818080"/>
<path fill-rule="evenodd" clip-rule="evenodd" d="M122.898 146.025L158.96 182.088C164.617 175.017 174.517 165.117 181.588 159.46L145.525 123.398C139.868 130.469 129.969 140.368 122.898 146.025Z" fill="#FC2E2E"/>
<path d="M158.96 182.088C161.694 184.821 166.126 184.821 168.86 182.088L181.588 169.36C184.321 166.626 184.321 162.194 181.588 159.46C174.517 165.117 164.617 175.017 158.96 182.088Z" fill="#278BE7"/>
<path d="M124.312 134.711L122.898 136.126C120.164 138.859 120.164 143.291 122.898 146.025C129.969 140.368 139.868 130.469 145.525 123.398C142.791 120.664 138.359 120.664 135.626 123.398L134.211 124.812L124.312 134.711Z" fill="#278BE7"/>
<path d="M124.312 134.711L134.211 124.812L127.451 118.051C124.458 121.647 121.084 124.914 117.389 127.788L124.312 134.711Z" fill="#818080"/>
</svg>
