<svg width="350" height="200" viewBox="0 0 350 200" fill="none" xmlns="http://www.w3.org/2000/svg">
<path d="M125.15 49.35C125.75 50.15 126.117 51.0833 126.25 52.15C126.25 52.55 126.217 52.95 126.15 53.35C126.15 53.6833 126.117 54.0167 126.05 54.35C125.983 55.0833 125.55 55.7833 124.75 56.45C124.283 56.7833 123.683 57.1167 122.95 57.45C122.55 57.5833 122.117 57.6833 121.65 57.75C121.25 57.75 120.783 57.7833 120.25 57.85C119.85 57.9833 119.417 58.05 118.95 58.05C118.483 58.05 118.017 58.05 117.55 58.05H113.05L92.15 58.15V58.45L92.05 74.75C92.5833 74.75 93.15 74.75 93.75 74.75C94.4166 74.75 95.2166 74.7167 96.15 74.65C98.8166 74.65 101.183 74.65 103.25 74.65C105.383 74.65 107.717 74.6833 110.25 74.75H110.85C111.583 74.75 112.317 74.7833 113.05 74.85C113.85 74.85 114.65 74.85 115.45 74.85C116.183 74.9167 116.917 75.0167 117.65 75.15C118.383 75.2167 119.117 75.3833 119.85 75.65C121.05 76.05 121.917 76.6833 122.45 77.55C123.183 78.4167 123.55 79.3167 123.55 80.25C123.55 80.65 123.55 81.05 123.55 81.45C123.55 81.7833 123.483 82.15 123.35 82.55C123.283 83.0833 122.85 83.75 122.05 84.55C121.517 85.0167 120.883 85.3167 120.15 85.45C119.817 85.5833 119.417 85.7167 118.95 85.85C118.55 85.9167 118.117 85.9833 117.65 86.05C117.183 86.1167 116.717 86.1833 116.25 86.25C115.85 86.25 115.383 86.25 114.85 86.25H110.25L91.85 86.35L91.55 109.55V110.35C91.55 110.683 91.5166 111.017 91.45 111.35C91.45 111.617 91.4166 111.917 91.35 112.25C91.2166 112.583 91.0833 112.95 90.95 113.35C90.8833 113.683 90.7833 114.017 90.65 114.35C90.1833 115.283 89.75 115.917 89.35 116.25C88.6166 116.783 87.7167 117.15 86.65 117.35C84.85 117.75 83.15 117.55 81.55 116.75C81.2167 116.55 80.8833 116.317 80.55 116.05C80.2833 115.717 80.05 115.317 79.85 114.85C79.7167 114.583 79.65 114.383 79.65 114.25L79.35 113.65C79.15 113.317 79.0167 112.983 78.95 112.65C78.8833 112.25 78.8167 111.883 78.75 111.55C78.75 111.217 78.7167 110.883 78.65 110.55C78.65 110.217 78.6167 109.883 78.55 109.55C78.4833 109.017 78.4833 108.483 78.55 107.95V106.35L78.65 98.55L78.75 84.15C78.8167 82.0167 78.85 79.85 78.85 77.65C78.85 75.45 78.85 73.1833 78.85 70.85C78.7833 68.45 78.75 66.3167 78.75 64.45C78.8167 62.5833 78.9167 60.55 79.05 58.35V57.85C79.1167 57.1167 79.15 56.45 79.15 55.85C79.15 55.1833 79.2167 54.5167 79.35 53.85C79.4833 52.3833 79.8167 51.0833 80.35 49.95C80.8167 48.8167 81.4833 48.0167 82.35 47.55C83.35 46.95 84.4167 46.65 85.55 46.65C86.0833 46.65 86.5167 46.6833 86.85 46.75V46.65C88.05 46.65 89.0166 46.65 89.75 46.65C90.4833 46.65 91.1833 46.65 91.85 46.65C92.5166 46.65 93.25 46.65 94.05 46.65C94.85 46.5833 95.9166 46.55 97.25 46.55C102.583 46.4833 107.85 46.4833 113.05 46.55H113.55C114.283 46.6167 115.017 46.65 115.75 46.65C116.55 46.65 117.35 46.6833 118.15 46.75C118.883 46.75 119.617 46.85 120.35 47.05C121.083 47.1833 121.817 47.3833 122.55 47.65C123.683 47.9833 124.55 48.55 125.15 49.35ZM141.448 71.95C143.648 70.8833 145.948 70.1167 148.348 69.65C150.748 69.1833 153.114 69.0833 155.448 69.35C157.848 69.6167 160.148 70.25 162.348 71.25C164.614 72.25 166.681 73.65 168.548 75.45C170.081 76.9833 171.414 78.85 172.548 81.05C173.681 83.1833 174.514 85.2833 175.048 87.35C176.181 91.0167 176.348 94.7167 175.548 98.45C174.748 102.183 173.381 105.65 171.448 108.85C170.514 110.317 169.348 111.65 167.948 112.85C166.614 113.983 165.181 114.917 163.648 115.65C161.648 116.583 159.481 117.217 157.148 117.55C154.814 117.95 152.548 118.05 150.348 117.85C146.348 117.65 142.814 116.65 139.748 114.85C136.748 113.05 134.314 110.75 132.448 107.95C130.648 105.15 129.448 101.983 128.848 98.45C128.314 94.85 128.548 91.1833 129.548 87.45C130.614 83.45 132.148 80.2167 134.148 77.75C136.214 75.2167 138.648 73.2833 141.448 71.95ZM144.448 85.35C143.448 86.2833 142.681 87.45 142.148 88.85C141.614 90.25 141.281 91.7167 141.148 93.25C141.014 94.7167 141.114 96.2167 141.448 97.75C141.848 99.2167 142.448 100.55 143.248 101.75C143.914 102.75 145.114 103.583 146.848 104.25C148.581 104.917 150.381 105.317 152.248 105.45C154.381 105.583 156.248 105.017 157.848 103.75C159.448 102.417 160.648 100.783 161.448 98.85C162.314 96.9167 162.714 94.8167 162.648 92.55C162.581 90.2833 161.981 88.2167 160.848 86.35C160.048 85.0167 158.914 84.05 157.448 83.45C156.048 82.7833 154.548 82.45 152.948 82.45C151.414 82.3833 149.881 82.6167 148.348 83.15C146.814 83.6167 145.514 84.35 144.448 85.35ZM221.216 78.65C221.75 79.5833 222.016 80.5833 222.016 81.65C222.083 82.7167 221.85 83.7167 221.316 84.65C220.716 85.85 219.85 86.6833 218.716 87.15C217.65 87.55 216.45 87.5833 215.116 87.25C214.516 87.1167 213.983 86.8833 213.516 86.55C213.05 86.2167 212.55 85.8833 212.016 85.55C211.55 85.15 210.983 84.7833 210.316 84.45C209.716 84.1167 208.916 83.8833 207.916 83.75C206.916 83.6167 205.816 83.6167 204.616 83.75C203.483 83.8833 202.45 84.15 201.516 84.55C200.05 85.2833 198.883 86.4167 198.016 87.95C197.15 89.4167 196.583 91.0167 196.316 92.75C196.05 94.4167 196.083 96.1167 196.416 97.85C196.816 99.5833 197.55 101.05 198.616 102.25C199.416 103.183 200.45 103.95 201.716 104.55C203.05 105.15 204.316 105.517 205.516 105.65C206.65 105.783 207.783 105.783 208.916 105.65C210.05 105.45 211.15 105.183 212.216 104.85C213.016 104.517 213.916 104.083 214.916 103.55C215.916 102.95 216.883 102.583 217.816 102.45C219.016 102.45 219.95 102.783 220.616 103.45C221.283 104.05 221.75 104.817 222.016 105.75C222.283 106.617 222.316 107.55 222.116 108.55C221.983 109.55 221.616 110.417 221.016 111.15C220.216 112.15 219.083 113.117 217.616 114.05C216.15 114.917 214.75 115.55 213.416 115.95C211.816 116.483 210.016 116.783 208.016 116.85C206.083 116.917 204.25 116.85 202.516 116.65C201.716 116.517 200.883 116.35 200.016 116.15C199.15 115.95 198.316 115.717 197.516 115.45C194.583 114.383 192.116 112.883 190.116 110.95C188.183 108.95 186.683 106.717 185.616 104.25C184.616 101.783 184.05 99.15 183.916 96.35C183.783 93.55 184.116 90.7833 184.916 88.05C185.65 85.45 186.55 83.25 187.616 81.45C188.75 79.65 190.05 78.1833 191.516 77.05C193.05 75.85 194.75 74.9167 196.616 74.25C198.483 73.5167 200.55 72.8833 202.816 72.35C205.15 71.8833 207.616 71.8833 210.216 72.35C212.816 72.8167 215.15 73.6833 217.216 74.95C218.816 75.8167 220.15 77.05 221.216 78.65ZM271.308 93.35C271.174 95.55 271.041 97.7833 270.908 100.05C270.774 102.25 270.408 104.383 269.808 106.45C269.274 108.517 268.408 110.383 267.208 112.05C266.074 113.717 264.441 115.05 262.308 116.05C260.441 116.983 258.441 117.617 256.308 117.95C254.174 118.35 252.041 118.517 249.908 118.45C247.774 118.383 245.708 118.05 243.708 117.45C241.708 116.917 239.908 116.15 238.308 115.15C236.708 114.15 235.408 112.85 234.408 111.25C233.408 109.65 232.608 107.917 232.008 106.05C231.474 104.183 231.108 102.25 230.908 100.25C230.708 98.25 230.574 96.3833 230.508 94.65C230.241 90.05 230.241 85.5167 230.508 81.05C230.508 80.1833 230.508 79.2167 230.508 78.15C230.508 77.0167 230.574 75.9167 230.708 74.85C230.908 73.7833 231.208 72.8167 231.608 71.95C232.008 71.0167 232.674 70.3167 233.608 69.85C235.608 68.7833 237.441 68.7167 239.108 69.65C240.841 70.5833 241.874 72.5167 242.208 75.45C242.408 76.9833 242.474 78.6833 242.408 80.55C242.408 82.4167 242.474 84.1167 242.608 85.65C242.674 87.9167 242.741 90.3833 242.808 93.05C242.874 95.65 243.241 97.9833 243.908 100.05C244.641 102.117 245.808 103.683 247.408 104.75C249.074 105.75 251.541 105.783 254.808 104.85C256.341 104.383 257.341 103.217 257.808 101.35C258.341 99.4833 258.608 96.7167 258.608 93.05C258.608 91.45 258.574 89.6833 258.508 87.75C258.441 85.8167 258.408 83.9167 258.408 82.05C258.408 80.1167 258.441 78.35 258.508 76.75C258.641 75.0833 258.841 73.8167 259.108 72.95C259.441 71.75 260.141 70.85 261.208 70.25C262.274 69.65 263.408 69.35 264.608 69.35C265.808 69.2833 266.941 69.5167 268.008 70.05C269.074 70.5833 269.808 71.45 270.208 72.65C270.608 73.7167 270.874 75.0833 271.008 76.75C271.208 78.35 271.341 80.1167 271.408 82.05C271.474 83.9167 271.474 85.85 271.408 87.85C271.408 89.7833 271.374 91.6167 271.308 93.35ZM303.424 99.55C302.157 98.75 300.724 98.1167 299.124 97.65C297.591 97.1833 295.991 96.75 294.324 96.35C292.724 95.95 291.157 95.5167 289.624 95.05C288.091 94.5167 286.691 93.7833 285.424 92.85C282.691 90.7833 281.091 88.25 280.624 85.25C280.224 82.1833 280.891 79.1167 282.624 76.05C283.557 74.45 284.791 73.15 286.324 72.15C287.857 71.0833 289.524 70.2833 291.324 69.75C293.191 69.15 295.091 68.8167 297.024 68.75C298.957 68.6833 300.791 68.7833 302.524 69.05C303.657 69.25 304.857 69.55 306.124 69.95C307.391 70.2833 308.557 70.75 309.624 71.35C310.757 71.95 311.757 72.7167 312.624 73.65C313.557 74.5167 314.224 75.6167 314.624 76.95C314.891 77.8167 314.924 78.65 314.724 79.45C314.591 80.25 314.257 80.9167 313.724 81.45C313.257 81.9833 312.624 82.3833 311.824 82.65C311.091 82.9167 310.291 82.9833 309.424 82.85C308.424 82.65 307.491 82.35 306.624 81.95C305.757 81.55 304.891 81.1167 304.024 80.65C303.157 80.1833 302.257 79.7833 301.324 79.45C300.457 79.1167 299.524 78.95 298.524 78.95C296.991 78.8833 295.724 79.15 294.724 79.75C293.724 80.35 293.024 81.0833 292.624 81.95C292.291 82.8167 292.324 83.75 292.724 84.75C293.191 85.75 294.124 86.6167 295.524 87.35C296.791 88.0167 298.191 88.55 299.724 88.95C301.257 89.35 302.757 89.75 304.224 90.15C305.757 90.55 307.224 91.0167 308.624 91.55C310.091 92.0833 311.391 92.8167 312.524 93.75C314.724 95.55 316.057 97.65 316.524 100.05C317.057 102.45 316.924 104.817 316.124 107.15C315.324 109.483 313.924 111.55 311.924 113.35C309.991 115.15 307.691 116.35 305.024 116.95C303.091 117.35 300.991 117.55 298.724 117.55C296.524 117.55 294.324 117.317 292.124 116.85C289.991 116.383 287.924 115.65 285.924 114.65C283.991 113.65 282.357 112.383 281.024 110.85C280.091 109.783 279.591 108.583 279.524 107.25C279.524 105.85 279.791 104.65 280.324 103.65C280.924 102.583 281.757 101.85 282.824 101.45C283.891 101.05 285.091 101.283 286.424 102.15C287.491 102.883 288.757 103.617 290.224 104.35C291.691 105.017 293.157 105.55 294.624 105.95C296.091 106.35 297.491 106.55 298.824 106.55C300.224 106.55 301.424 106.25 302.424 105.65C303.891 104.717 304.657 103.65 304.724 102.45C304.791 101.183 304.357 100.217 303.424 99.55Z" fill="#FEFCFC"/>
<path d="M163.392 76.696C163.392 92.4227 157.781 106.839 148.451 118.051C145.458 121.647 142.084 124.914 138.389 127.788C127.43 136.314 113.656 141.392 98.696 141.392C62.9654 141.392 34 112.427 34 76.696C34 40.9654 62.9654 12 98.696 12C134.427 12 163.392 40.9654 163.392 76.696ZM46.9392 76.696C46.9392 105.281 70.1115 128.453 98.696 128.453C127.281 128.453 150.453 105.281 150.453 76.696C150.453 48.1115 127.281 24.9392 98.696 24.9392C70.1115 24.9392 46.9392 48.1115 46.9392 76.696Z" fill="#818080"/>
<path fill-rule="evenodd" clip-rule="evenodd" d="M143.898 146.025L179.96 182.088C185.617 175.016 195.517 165.117 202.588 159.46L166.525 123.398C160.868 130.469 150.969 140.368 143.898 146.025Z" fill="#FC2E2E"/>
<path d="M179.96 182.088C182.694 184.821 187.126 184.821 189.86 182.088L202.588 169.36C205.321 166.626 205.321 162.194 202.588 159.46C195.517 165.117 185.617 175.016 179.96 182.088Z" fill="#278BE7"/>
<path d="M145.312 134.711L143.898 136.126C141.164 138.859 141.164 143.291 143.898 146.025C150.969 140.368 160.868 130.469 166.525 123.398C163.791 120.664 159.359 120.664 156.626 123.398L155.211 124.812L145.312 134.711Z" fill="#278BE7"/>
<path d="M145.312 134.711L155.211 124.812L148.451 118.051C145.458 121.647 142.084 124.914 138.389 127.788L145.312 134.711Z" fill="#818080"/>
</svg>
