<svg width="500" height="500" viewBox="0 0 500 500" fill="none" xmlns="http://www.w3.org/2000/svg">
<path d="M319.667 20.8333H180.334C92.2441 20.8333 20.8335 92.2439 20.8335 180.333V319.667C20.8335 407.756 92.2441 479.167 180.334 479.167H319.667C407.756 479.167 479.167 407.756 479.167 319.667V180.333C479.167 92.2439 407.756 20.8333 319.667 20.8333Z" fill="#F8DE40"/>
<path d="M479.167 290.375C450.839 332.798 412.356 367.467 367.217 391.229C322.078 414.992 271.716 427.095 220.708 426.437C105.25 426.437 83.9792 405.604 30.25 373.75C41.3901 404.622 61.7779 431.308 88.6352 450.172C115.492 469.037 147.513 479.161 180.333 479.167H319.667C361.969 479.167 402.538 462.362 432.45 432.45C462.362 402.538 479.167 361.969 479.167 319.667V290.375Z" fill="#E7C930"/>
<path d="M400 287.375C374.696 282.245 352.178 267.948 336.771 247.229C328.785 237.822 317.857 231.387 305.757 228.966C293.657 226.546 281.094 228.283 270.104 233.896C261.442 240.025 254.516 248.293 250 257.896C245.483 248.3 238.565 240.034 229.917 233.896C218.925 228.291 206.365 226.558 194.266 228.978C182.168 231.397 171.24 237.828 163.25 247.229C147.842 267.956 125.314 282.255 100 287.375C98.3802 287.397 96.7949 287.846 95.4048 288.678C94.0147 289.509 92.8693 290.694 92.0845 292.111C91.2998 293.528 90.9037 295.128 90.9364 296.747C90.9692 298.367 91.4295 299.949 92.2709 301.333C99.6954 314.129 110.683 324.487 123.893 331.146C137.103 337.805 151.965 340.476 166.667 338.833C216.125 335.938 240.25 318.437 250 300.646C259.708 318.437 283.833 335.938 333.333 338.833C348.09 340.484 363.008 337.792 376.257 331.086C389.506 324.38 400.509 313.953 407.917 301.083C408.717 299.694 409.137 298.118 409.136 296.514C409.135 294.911 408.712 293.336 407.91 291.947C407.108 290.558 405.955 289.405 404.567 288.602C403.179 287.8 401.604 287.377 400 287.375Z" fill="#864E20"/>
<path d="M146.438 149C139.236 148.992 132.195 151.12 126.204 155.115C120.212 159.11 115.541 164.793 112.78 171.444C110.02 178.095 109.294 185.415 110.696 192.479C112.097 199.542 115.562 206.031 120.653 211.124C125.743 216.218 132.23 219.687 139.293 221.092C146.355 222.497 153.676 221.776 160.329 219.019C166.981 216.263 172.667 211.595 176.665 205.606C180.664 199.617 182.796 192.576 182.792 185.375C182.786 175.733 178.955 166.487 172.139 159.668C165.323 152.848 156.079 149.011 146.438 149Z" fill="white"/>
<path d="M146.438 173.938C144.17 173.934 141.951 174.603 140.064 175.86C138.176 177.118 136.705 178.907 135.835 181.001C134.965 183.096 134.736 185.402 135.178 187.626C135.619 189.851 136.711 191.895 138.315 193.498C139.918 195.102 141.962 196.194 144.187 196.635C146.411 197.077 148.717 196.848 150.811 195.978C152.906 195.108 154.695 193.636 155.953 191.749C157.21 189.861 157.879 187.643 157.875 185.375C157.875 182.342 156.67 179.433 154.525 177.288C152.38 175.143 149.471 173.938 146.438 173.938Z" fill="#864E20"/>
<path d="M352.75 149C345.546 148.98 338.498 151.097 332.499 155.085C326.5 159.072 321.819 164.751 319.048 171.4C316.278 178.05 315.544 185.373 316.938 192.44C318.332 199.508 321.793 206.002 326.881 211.102C331.969 216.202 338.455 219.677 345.52 221.087C352.584 222.498 359.908 221.78 366.564 219.025C373.22 216.27 378.909 211.602 382.911 205.612C386.912 199.622 389.046 192.579 389.042 185.375C389.036 175.744 385.214 166.508 378.411 159.69C371.609 152.872 362.381 149.028 352.75 149Z" fill="white"/>
<path d="M352.729 173.938C350.462 173.938 348.246 174.61 346.361 175.87C344.476 177.13 343.008 178.921 342.141 181.016C341.275 183.111 341.049 185.416 341.493 187.639C341.937 189.862 343.03 191.904 344.634 193.506C346.239 195.107 348.283 196.197 350.507 196.637C352.731 197.076 355.035 196.847 357.129 195.976C359.222 195.106 361.01 193.634 362.267 191.747C363.523 189.86 364.192 187.642 364.188 185.375C364.182 182.34 362.972 179.431 360.824 177.286C358.676 175.142 355.765 173.938 352.729 173.938Z" fill="#864E20"/>
<path d="M449.042 118.604C447.729 112.583 388.875 101.333 347.563 101.333C323.69 98.9904 299.678 104.084 278.813 115.917C269.908 120.572 260.046 123.104 250 123.312C239.973 123.117 230.127 120.607 221.229 115.979C200.364 104.147 176.351 99.0529 152.479 101.396C111.167 101.396 52.3125 112.646 51 118.667C49.6875 124.687 48.6459 144.021 52.8334 147.438C57.0209 150.854 61.9792 147.958 62.7709 159.937C63.5625 171.917 72.7084 221.938 100.438 238.417C128.167 254.896 178.375 241.813 196.271 230.813C215.44 218.925 229.419 200.244 235.417 178.5C238.292 159.917 242.729 147.104 250 147.104C257.271 147.104 261.771 159.917 264.583 178.5C270.606 200.25 284.616 218.925 303.813 230.792C321.604 241.792 371.813 254.854 399.646 238.396C427.479 221.937 436.521 171.958 437.313 159.917C438.104 147.875 443.063 150.771 447.25 147.417C451.438 144.063 450.354 124.604 449.042 118.604Z" fill="#101820"/>
</svg>
