<svg width="630" height="578" viewBox="0 0 630 578" fill="none" xmlns="http://www.w3.org/2000/svg">
<path d="M83.115 339.721C28.6298 269.671 13.3967 206 61.115 145.221C152.056 29.39 247.295 36.2214 370.615 59.2215C469.045 77.5793 635.994 102.724 590.115 191.721C544.235 280.719 455.192 458.207 334.615 401.221C214.037 344.236 137 409 83.115 339.721Z" fill="#F2F2F2"/>
<path d="M261.557 268H151.557V391H261.557V268Z" fill="#CCCCCC"/>
<path d="M95.5569 576H39.5569L33.5569 528H101.557L95.5569 576Z" fill="#E6E6E6"/>
<path d="M208.007 541.232L206.117 567.067C206.032 568.237 206.197 569.411 206.603 570.511C207.008 571.611 207.644 572.612 208.468 573.446C209.292 574.281 210.285 574.929 211.38 575.348C212.475 575.767 213.647 575.947 214.817 575.876L228.087 575.073C228.702 575.035 229.301 574.863 229.842 574.568C230.383 574.273 230.852 573.863 231.216 573.366C231.58 572.869 231.831 572.298 231.949 571.694C232.068 571.089 232.052 570.466 231.903 569.868L224.537 540.406L208.007 541.232Z" fill="#E6E6E6"/>
<path d="M319.003 556.509C334.62 560.163 345.777 565.356 353.106 572.384C355.716 574.867 359.131 576.331 362.729 576.509C367.326 576.751 371.084 576.236 373.909 574.974C374.632 574.655 375.258 574.148 375.719 573.506C376.181 572.864 376.462 572.111 376.534 571.323C376.62 570.523 376.49 569.715 376.157 568.982C375.825 568.25 375.303 567.619 374.645 567.156L337.606 540.802L321.873 547.096L318.203 550.766C317.805 551.163 317.505 551.648 317.327 552.18C317.148 552.713 317.096 553.28 317.173 553.837C317.251 554.393 317.456 554.924 317.774 555.388C318.091 555.852 318.512 556.236 319.003 556.509Z" fill="#E6E6E6"/>
<path d="M270.94 134.695L165.067 133.714C165.333 118.294 168.921 103.151 176.764 89.6005C181.914 80.701 181.803 71.0158 180.562 62.8561C178.646 50.2641 183.101 37.3806 192.999 29.3649C200.563 23.2286 210.11 20.0698 219.842 20.4836L221.897 20.5692C228.594 20.8475 235.113 22.8036 240.856 26.258C246.6 29.7123 251.383 34.5542 254.768 40.3391C258.208 46.5146 259.595 53.624 258.729 60.6398C258.058 67.2411 259.664 73.9096 263.42 80.6416C269.9 95.4242 271.303 114.34 270.94 134.695Z" fill="#2F2E41"/>
<path d="M341.775 542.176L320.996 547.597L219.813 327.161L226.137 542.176H205.358C183.154 441.017 143.067 324.269 161.09 287.41L268.598 281.086L341.775 542.176Z" fill="#F23C3C"/>
<path d="M218.909 97.6913C234.376 97.6913 246.915 85.1525 246.915 69.6851C246.915 54.2177 234.376 41.679 218.909 41.679C203.442 41.679 190.903 54.2177 190.903 69.6851C190.903 85.1525 203.442 97.6913 218.909 97.6913Z" fill="#FFB9B9"/>
<path d="M243.301 121.18L197.227 118.47C201.742 108.106 203.546 98.1264 201.744 88.657H236.074C235.996 95.9276 239.614 108.504 243.301 121.18Z" fill="#FFB9B9"/>
<path d="M272.211 289.217L171.028 296.445L181.417 117.115L199.034 112.146L218.909 116.663L238.784 106.725L251.432 111.243L272.211 289.217Z" fill="#F23C3C"/>
<path d="M188.193 418.407L119.081 402.597C139.631 334.449 176.654 178.546 164.704 122.987L200.841 106.726L188.193 418.407Z" fill="#82C8BB"/>
<path d="M154.766 221.461L128.567 205.199L150.91 139.759C153.402 133.007 158.175 127.337 164.404 123.731L171.931 119.374L167.414 185.324L154.766 221.461Z" fill="#82C8BB"/>
<path d="M332.289 403.501C310.476 416.121 255.95 423.156 232.009 414.342C230.247 352.769 226.792 178.603 237.881 104.919L277.632 121.18L274.018 169.965C255.014 211.698 310.198 357.054 332.289 403.501Z" fill="#82C8BB"/>
<path d="M329.127 213.33L304.734 205.199L272.211 168.158L277.632 121.18L331.837 197.068L329.127 213.33Z" fill="#82C8BB"/>
<path d="M252.681 248.494C253.08 250.245 254.158 251.767 255.677 252.725C257.196 253.684 259.034 254 260.786 253.606L281.492 248.917L278.5 235.7L257.793 240.389C256.041 240.786 254.518 241.863 253.559 243.383C252.6 244.903 252.284 246.741 252.681 248.494Z" fill="#FFB9B9"/>
<path d="M243.301 62.4576C227.746 56.0611 212.382 55.5982 197.227 61.5541L190.903 38.9685H248.722L243.301 62.4576Z" fill="#2F2E41"/>
<path d="M271.308 233.205L283.052 254.887C302.806 249.378 319.926 232.008 336.354 211.523L331.837 197.068L303.831 204.295L271.308 233.205Z" fill="#82C8BB"/>
<path d="M262.725 188.486H259.111C259.111 137.375 248.588 101.757 238.333 101.757L237.429 98.1431C246.626 98.1431 252.49 112.967 255.789 125.403C260.262 142.263 262.725 164.666 262.725 188.486Z" fill="#3F3D56"/>
<path d="M179.61 175.837H175.996C175.996 129.028 186.593 99.9497 202.196 99.9497L201.292 103.563C190.5 103.563 179.61 125.911 179.61 175.837Z" fill="#3F3D56"/>
<path d="M260.918 198.423C265.908 198.423 269.953 194.378 269.953 189.389C269.953 184.399 265.908 180.354 260.918 180.354C255.929 180.354 251.884 184.399 251.884 189.389C251.884 194.378 255.929 198.423 260.918 198.423Z" fill="#3F3D56"/>
<path d="M165.155 197.52H161.542C161.542 184.568 168.836 174.031 177.803 174.031V177.644C170.829 177.644 165.155 186.56 165.155 197.52Z" fill="#3F3D56"/>
<path d="M194.065 197.52H190.451C190.451 186.56 184.777 177.644 177.803 177.644V174.031C186.77 174.031 194.065 184.568 194.065 197.52Z" fill="#3F3D56"/>
<path d="M192.258 202.037C194.254 202.037 195.872 200.419 195.872 198.423C195.872 196.427 194.254 194.809 192.258 194.809C190.262 194.809 188.644 196.427 188.644 198.423C188.644 200.419 190.262 202.037 192.258 202.037Z" fill="#3F3D56"/>
<path d="M163.348 202.037C165.344 202.037 166.962 200.419 166.962 198.423C166.962 196.427 165.344 194.809 163.348 194.809C161.353 194.809 159.735 196.427 159.735 198.423C159.735 200.419 161.353 202.037 163.348 202.037Z" fill="#3F3D56"/>
<path d="M118.177 165.193L140.724 169.219L192.258 242.495L164.88 236.053L118.177 165.193Z" fill="#F23C3C"/>
<path d="M114.178 164.296C113.834 164.301 113.498 164.398 113.205 164.578C112.912 164.757 112.673 165.012 112.512 165.316C112.351 165.619 112.275 165.961 112.291 166.304C112.307 166.647 112.416 166.98 112.604 167.267L160.776 240.355C161.045 240.763 161.46 241.053 161.936 241.165L184.349 246.438C184.726 246.527 185.122 246.499 185.484 246.358C185.846 246.217 186.156 245.969 186.373 245.647C186.591 245.326 186.705 244.945 186.702 244.557C186.698 244.169 186.576 243.791 186.353 243.474L133.464 168.272C133.32 168.067 133.138 167.892 132.927 167.758C132.716 167.624 132.481 167.532 132.234 167.489L114.539 164.329C114.42 164.307 114.299 164.296 114.178 164.296Z" fill="#3F3D56"/>
<path d="M144.227 216.553L145.566 230.038L166.692 227.941C168.481 227.764 170.125 226.883 171.264 225.493C172.403 224.103 172.943 222.317 172.766 220.529C172.588 218.741 171.708 217.096 170.318 215.957C168.928 214.818 167.142 214.278 165.354 214.456L144.227 216.553Z" fill="#FFB9B9"/>
<path d="M125.857 214.991C125.887 219.589 127.734 223.989 130.995 227.231C134.255 230.474 138.665 232.296 143.263 232.302H146.737L149.266 211.226L128.326 203.688L125.857 214.991Z" fill="#82C8BB"/>
<path d="M25.1764 510.243C39.5961 529.554 69.5284 531.587 69.5284 531.587C69.5284 531.587 76.082 502.31 61.6623 482.999C47.2427 463.688 17.3103 461.655 17.3103 461.655C17.3103 461.655 10.7568 490.932 25.1764 510.243Z" fill="#7BCC83"/>
<path d="M98.633 517.503C89.1179 530.245 69.3665 531.587 69.3665 531.587C69.3665 531.587 65.042 512.268 74.5571 499.525C84.0722 486.782 103.824 485.441 103.824 485.441C103.824 485.441 108.148 504.76 98.633 517.503Z" fill="#7BCC83"/>
<path d="M519.557 575.656H0V577.897H519.557V575.656Z" fill="#3F3D56"/>
</svg>
