<svg width="50" height="50" viewBox="0 0 50 50" fill="none" xmlns="http://www.w3.org/2000/svg">
<path fill-rule="evenodd" clip-rule="evenodd" d="M31.8317 11.2724C29.8513 10.4879 27.6537 10 25.25 10C18.6444 10 13.5957 13.6842 10.3313 17.0854C8.68039 18.8054 7.42152 20.5175 6.57486 21.798C6.15015 22.4403 5.82551 22.9796 5.60382 23.3646C5.49289 23.5572 5.40748 23.7116 5.34797 23.8215C5.3182 23.8764 5.29489 23.9203 5.27808 23.9522L5.25773 23.9911L5.25122 24.0037L5.24888 24.0083L5.24794 24.0101C5.24753 24.0109 5.24715 24.0116 7.25 25.0369L5.24715 24.0116C4.91762 24.6554 4.91762 25.4183 5.24715 26.0621L7.25 25.0369C5.24715 26.0621 5.24753 26.0628 5.24794 26.0636L5.24888 26.0655L5.25122 26.07L5.25773 26.0826L5.27808 26.1215C5.29489 26.1534 5.3182 26.1973 5.34796 26.2522C5.40748 26.3621 5.49289 26.5165 5.60382 26.7091C5.82551 27.0941 6.15015 27.6334 6.57486 28.2758C7.42152 29.5563 8.68039 31.2683 10.3313 32.9883C10.8595 33.5387 11.4344 34.0964 12.0551 34.6448L14.9622 31.2092C14.4762 30.7758 14.0145 30.3273 13.5778 29.8723C12.1605 28.3956 11.0671 26.9109 10.3285 25.7939C10.1443 25.5152 9.98308 25.2609 9.84528 25.0369C9.98308 24.8129 10.1443 24.5585 10.3285 24.2799C11.0671 23.1628 12.1605 21.6781 13.5778 20.2015C16.4498 17.2092 20.401 14.5 25.25 14.5C26.4585 14.5 27.6112 14.6683 28.7053 14.9673L31.8317 11.2724ZM20.7424 34.7734C22.1425 35.2778 23.6472 35.5738 25.25 35.5738C30.099 35.5738 34.0502 32.8645 36.9222 29.8723C38.3395 28.3956 39.4329 26.9109 40.1715 25.7939C40.3557 25.5152 40.5169 25.2609 40.6547 25.0369C40.5169 24.8129 40.3557 24.5585 40.1715 24.2799C39.4329 23.1628 38.3395 21.6781 36.9222 20.2015C36.2591 19.5106 35.5385 18.8349 34.7626 18.204L37.6691 14.7691C38.5927 15.5248 39.4268 16.3124 40.1688 17.0854C41.8196 18.8054 43.0785 20.5175 43.9251 21.798C44.3499 22.4403 44.6745 22.9796 44.8962 23.3646C45.0071 23.5572 45.0925 23.7116 45.152 23.8215C45.1818 23.8764 45.2051 23.9203 45.2219 23.9522L45.2423 23.9911L45.2488 24.0037L45.2511 24.0083L45.2521 24.0101C45.2525 24.0109 45.2528 24.0116 43.25 25.0369C45.2528 26.0621 45.2525 26.0628 45.2521 26.0636L45.2511 26.0655L45.2488 26.07L45.2423 26.0826L45.2219 26.1215C45.2051 26.1534 45.1818 26.1973 45.152 26.2522C45.0925 26.3621 45.0071 26.5165 44.8962 26.7091C44.6745 27.0941 44.3499 27.6334 43.9251 28.2758C43.0785 29.5563 41.8196 31.2683 40.1688 32.9883C36.9043 36.3895 31.8556 40.0738 25.25 40.0738C22.4427 40.0738 19.9165 39.4083 17.689 38.3819L20.7424 34.7734ZM43.25 25.0369L45.2528 24.0116C45.5824 24.6554 45.5824 25.4183 45.2528 26.0621L43.25 25.0369Z" fill="black"/>
<rect x="38" y="6" width="4.01651" height="45" rx="2.00826" transform="rotate(39.7705 38 6)" fill="black"/>
<path d="M24.9091 29.75C27.6203 29.75 29.8182 27.5674 29.8182 24.875C29.8182 22.1826 27.6203 20 24.9091 20C22.1979 20 20 22.1826 20 24.875C20 27.5674 22.1979 29.75 24.9091 29.75Z" stroke="black" stroke-width="3" stroke-linecap="round" stroke-linejoin="round"/>
</svg>
