<svg width="576" height="363" viewBox="0 0 576 363" fill="none" xmlns="http://www.w3.org/2000/svg">
<path d="M45.4878 161.523C52.2024 96.6157 85.7496 53.5155 145.744 27.8488C213.724 -1.23461 259.15 49.271 331.403 64.9806C399.8 79.8521 467.778 47.1361 505.922 105.826C535.95 152.028 540.915 204.361 505.922 246.926C471.157 289.215 422.029 263.145 368.534 274.775C281.068 293.792 226.105 368.038 145.744 328.616C77.4232 295.101 37.6573 237.218 45.4878 161.523Z" fill="#D9D9D9"/>
<path d="M227.294 289.272H2.31669C1.70248 289.271 1.11361 289.027 0.679293 288.592C0.244976 288.158 0.000681134 287.569 0 286.955V67.6409C0.000681134 67.0267 0.244976 66.4378 0.679293 66.0035C1.11361 65.5692 1.70248 65.3249 2.31669 65.3242H227.294C227.908 65.3249 228.497 65.5692 228.931 66.0035C229.365 66.4379 229.61 67.0267 229.61 67.6409V286.955C229.61 287.569 229.365 288.158 228.931 288.592C228.497 289.027 227.908 289.271 227.294 289.272Z" fill="#7BCC83"/>
<path d="M202.838 85.4019H26.7689C26.1547 85.4028 25.566 85.6472 25.1317 86.0815C24.6975 86.5157 24.4531 87.1045 24.4521 87.7186V224.146C24.4531 224.76 24.6975 225.349 25.1317 225.783C25.566 226.218 26.1547 226.462 26.7689 226.463H202.838C203.452 226.462 204.041 226.218 204.475 225.783C204.909 225.349 205.154 224.76 205.155 224.146V87.7186C205.154 87.1045 204.909 86.5157 204.475 86.0815C204.041 85.6472 203.452 85.4028 202.838 85.4019Z" fill="white"/>
<path d="M192.802 253.234H36.8115C36.4702 253.233 36.1431 253.097 35.9018 252.856C35.6605 252.615 35.5248 252.288 35.5244 251.946V244.739C35.5248 244.398 35.6605 244.071 35.9018 243.829C36.1431 243.588 36.4702 243.452 36.8115 243.452H192.802C193.144 243.452 193.471 243.588 193.712 243.829C193.953 244.071 194.089 244.398 194.089 244.739V251.946C194.089 252.288 193.953 252.615 193.712 252.856C193.471 253.097 193.144 253.233 192.802 253.234Z" fill="white"/>
<path d="M138.746 270.737H36.8115C36.4702 270.737 36.1431 270.601 35.9018 270.36C35.6605 270.119 35.5248 269.791 35.5244 269.45V262.243C35.5248 261.901 35.6605 261.574 35.9018 261.333C36.1431 261.092 36.4702 260.956 36.8115 260.956H138.746C139.087 260.956 139.414 261.092 139.656 261.333C139.897 261.574 140.033 261.901 140.033 262.243V269.45C140.033 269.791 139.897 270.119 139.656 270.36C139.414 270.601 139.087 270.737 138.746 270.737Z" fill="white"/>
<path d="M110.455 177.848C122.818 177.848 132.841 167.825 132.841 155.462C132.841 143.098 122.818 133.075 110.455 133.075C98.0911 133.075 88.0684 143.098 88.0684 155.462C88.0684 167.825 98.0911 177.848 110.455 177.848Z" fill="#FFB8B8"/>
<path d="M143.208 226.462H93.5742L95.1958 189.972L95.5822 189.565L101.152 183.681H118.877L125.447 190.044L125.977 190.559L139.965 203.965L143.208 226.462Z" fill="#F23C3C"/>
<path d="M102.105 226.463H64.5542C64.4617 218.226 64.4102 213.294 64.4102 213.294L66.5826 211.971C66.5853 211.968 66.5889 211.966 66.5929 211.966H66.5981L90.527 197.437L95.5515 189.277L95.5774 189.566L97.055 206.766C97.055 206.766 99.4952 214.653 102.105 226.463Z" fill="#2F2E41"/>
<path d="M165.219 226.463H125.444C126.047 202.441 122.803 189.277 124.472 189.277L125.444 190.044L137.167 199.301L152.617 204.969H152.627L163.279 208.877L165.147 209.561V210.442C165.153 212.552 165.163 218.324 165.219 226.463Z" fill="#2F2E41"/>
<path d="M89.2796 162.465C89.2796 162.465 91.1816 159.125 90.7394 147.966C90.2972 136.808 107.289 143.119 121.488 142.054C135.686 140.99 132.681 160.684 132.681 160.684C132.681 160.684 133.705 159.513 135.898 150.008C138.091 140.503 133.112 131.031 133.112 131.031C131.645 121.043 123.742 124.244 123.742 124.244C127.548 125.726 126.817 128.895 126.817 128.895C123.595 123.246 115.691 126.447 115.691 126.447C105.15 119.832 94.4668 128.543 94.4668 128.543C81.7325 131.433 89.2007 141.56 89.2007 141.56C76.3942 148.032 89.2796 162.465 89.2796 162.465Z" fill="#2F2E41"/>
<path d="M69.5743 226.463H54.145C54.2653 224.562 54.2687 222.655 54.1553 220.754C53.2337 217.083 66.197 212.12 66.5882 211.971C66.5909 211.968 66.5945 211.966 66.5985 211.966H66.6038L69.0748 213.294L69.5743 226.463Z" fill="#2F2E41"/>
<path d="M168.007 226.463H151.8L149.777 206.488L152.048 204.83C152.048 204.83 152.254 204.876 152.619 204.969H152.629C154.447 205.417 160.069 206.9 163.281 208.877C163.996 209.278 164.63 209.808 165.15 210.442C165.469 210.824 165.627 211.315 165.593 211.811C165.51 212.558 166.458 218.056 168.007 226.463Z" fill="#2F2E41"/>
<path d="M573.683 223.947H348.706C348.092 223.947 347.503 223.702 347.069 223.268C346.635 222.834 346.39 222.245 346.39 221.631V2.31669C346.39 1.70248 346.635 1.11362 347.069 0.679304C347.503 0.244986 348.092 0.000683056 348.706 0H573.683C574.298 0.000671567 574.886 0.244961 575.321 0.679282C575.755 1.1136 575.999 1.70247 576 2.31669V221.631C575.999 222.245 575.755 222.834 575.321 223.268C574.886 223.702 574.298 223.947 573.683 223.947Z" fill="#D6B050"/>
<path d="M549.226 20.0785H373.157C372.542 20.0794 371.954 20.3238 371.519 20.758C371.085 21.1923 370.841 21.781 370.84 22.3952V158.823C370.841 159.437 371.085 160.026 371.519 160.46C371.954 160.894 372.542 161.139 373.157 161.139H549.226C549.84 161.139 550.428 160.894 550.863 160.46C551.297 160.026 551.541 159.437 551.542 158.823V22.3952C551.541 21.781 551.297 21.1923 550.863 20.758C550.428 20.3238 549.84 20.0794 549.226 20.0785Z" fill="white"/>
<path d="M539.185 187.91H383.194C382.853 187.909 382.526 187.773 382.285 187.532C382.043 187.291 381.908 186.964 381.907 186.623V179.415C381.908 179.074 382.043 178.747 382.285 178.505C382.526 178.264 382.853 178.128 383.194 178.128H539.185C539.526 178.128 539.854 178.264 540.095 178.505C540.336 178.747 540.472 179.074 540.472 179.415V186.623C540.472 186.964 540.336 187.291 540.095 187.532C539.854 187.773 539.526 187.909 539.185 187.91Z" fill="white"/>
<path d="M485.129 205.414H383.194C382.853 205.413 382.526 205.278 382.285 205.036C382.043 204.795 381.908 204.468 381.907 204.127V196.919C381.908 196.578 382.043 196.251 382.285 196.009C382.526 195.768 382.853 195.632 383.194 195.632H485.129C485.47 195.632 485.797 195.768 486.039 196.009C486.28 196.251 486.416 196.578 486.416 196.919V204.127C486.416 204.468 486.28 204.795 486.039 205.036C485.797 205.278 485.47 205.413 485.129 205.414Z" fill="white"/>
<path d="M504.53 161.14C505.523 157.562 506.295 154.478 506.692 152.295C506.814 151.622 506.826 150.933 506.728 150.256C505.245 139.708 478.464 130.791 475.03 129.689L474.201 120.505L440.491 116.875L436.223 128.624L424.125 133.159C423.687 133.321 423.27 133.535 422.884 133.797C421.869 134.483 421.089 135.462 420.648 136.605C420.207 137.747 420.127 138.997 420.418 140.186L425.571 161.14L504.53 161.14Z" fill="#F23C3C"/>
<path d="M434.646 161.14H408.488C409.425 155.301 410.265 150.138 410.81 146.853C412.808 134.899 421.518 133.88 422.883 133.797C422.991 133.787 423.058 133.787 423.063 133.787H428.566L434.646 161.14Z" fill="#F23C3C"/>
<path d="M504.529 161.14H510.872C510.311 155.986 508.529 152.516 506.728 150.256C505.525 148.667 503.973 147.376 502.192 146.483L501.713 146.277L496.138 161.14H504.529Z" fill="#F23C3C"/>
<path d="M456.024 111.062C469.429 111.062 480.296 100.195 480.296 86.7896C480.296 73.3845 469.429 62.5175 456.024 62.5175C442.619 62.5175 431.752 73.3845 431.752 86.7896C431.752 100.195 442.619 111.062 456.024 111.062Z" fill="#A0616A"/>
<path d="M439.734 74.9645C442.247 77.9381 446.498 78.7767 450.421 79.1178C458.387 79.8167 469.97 78.6833 477.755 76.8862C478.314 82.2711 476.797 88.0778 479.968 92.5082C481.455 87.145 482.319 81.6284 482.544 76.0675C482.64 73.6825 482.603 71.2153 481.634 69.026C480.665 66.8367 478.551 64.9781 476.117 64.959C477.926 63.5875 480.044 62.6823 482.285 62.3232L474.578 58.4503L476.557 56.4183L462.605 55.5645L466.646 52.9975C460.561 52.1619 454.406 51.9684 448.28 52.42C445.437 52.6293 442.464 53.0294 440.161 54.6772C437.857 56.3249 436.526 59.5988 437.956 62.0174C436.166 62.3114 434.48 63.0577 433.059 64.1855C431.637 65.3134 430.527 66.7854 429.834 68.4622C428.807 71.066 428.901 73.9581 429.217 76.7328C429.743 81.1704 430.774 85.5334 432.291 89.7367" fill="#2F2E41"/>
<path d="M404.76 362.035H179.784C179.169 362.034 178.58 361.789 178.146 361.355C177.712 360.921 177.467 360.332 177.467 359.718V140.404C177.467 139.79 177.712 139.201 178.146 138.766C178.58 138.332 179.169 138.088 179.784 138.087H404.76C405.375 138.088 405.964 138.332 406.398 138.766C406.832 139.201 407.076 139.79 407.077 140.404V359.718C407.076 360.332 406.832 360.921 406.398 361.355C405.964 361.789 405.375 362.034 404.76 362.035Z" fill="#82C8BB"/>
<path d="M380.314 158.166H204.245C203.631 158.167 203.043 158.411 202.608 158.846C202.174 159.28 201.93 159.869 201.929 160.483V296.91C201.93 297.524 202.174 298.113 202.608 298.547C203.043 298.982 203.631 299.226 204.245 299.227H380.314C380.929 299.226 381.517 298.982 381.952 298.547C382.386 298.113 382.63 297.524 382.631 296.91V160.483C382.63 159.869 382.386 159.28 381.952 158.846C381.517 158.411 380.929 158.167 380.314 158.166Z" fill="white"/>
<path d="M370.272 325.996H214.281C213.94 325.996 213.613 325.86 213.372 325.619C213.13 325.377 212.995 325.05 212.994 324.709V317.501C212.995 317.16 213.13 316.833 213.372 316.592C213.613 316.35 213.94 316.215 214.281 316.214H370.272C370.613 316.215 370.94 316.35 371.182 316.592C371.423 316.833 371.559 317.16 371.559 317.501V324.709C371.559 325.05 371.423 325.377 371.182 325.619C370.94 325.86 370.613 325.996 370.272 325.996Z" fill="white"/>
<path d="M316.216 343.5H214.281C213.94 343.5 213.613 343.364 213.372 343.123C213.13 342.881 212.995 342.554 212.994 342.213V335.005C212.995 334.664 213.13 334.337 213.372 334.096C213.613 333.855 213.94 333.719 214.281 333.718H316.216C316.557 333.719 316.884 333.855 317.125 334.096C317.367 334.337 317.502 334.664 317.503 335.005V342.213C317.502 342.554 317.367 342.881 317.125 343.123C316.884 343.364 316.557 343.5 316.216 343.5Z" fill="white"/>
<path d="M309.6 299.227H274.165L276.374 266.082L289.157 269.032L301.589 264.25L301.919 264.126L301.94 264.116C301.944 264.126 301.948 264.136 301.95 264.147C302.146 264.934 306.048 280.559 309.6 299.227Z" fill="#F23C3C"/>
<path d="M330.955 271.493L327.645 299.226H297.78L301.59 264.25L301.626 263.91L301.919 264.126L301.95 264.146L309.317 269.521L330.955 271.493Z" fill="#2F2E41"/>
<path d="M279.403 299.227H252.658L252.271 277.393L271.953 270.865L276.37 266.083C276.37 266.083 277.765 280.472 279.403 299.227Z" fill="#2F2E41"/>
<path d="M343.83 299.226H321.667L323.088 279.359L330.954 271.493C330.954 271.493 337.179 284.548 343.83 299.226Z" fill="#2F2E41"/>
<path d="M258.963 299.226H247.271C247.323 292.863 247.354 288.467 247.354 287.226C247.295 285.308 247.714 283.405 248.572 281.689C249.43 279.973 250.701 278.497 252.271 277.393L258.176 279.359L258.963 299.226Z" fill="#2F2E41"/>
<path d="M257.147 231.966C257.165 226.575 258.583 221.28 261.26 216.601C263.938 211.922 267.784 208.018 272.423 205.271C282.279 199.453 294.17 199.558 305.046 205.559C312.795 209.835 319.1 220.593 319.1 229.542V255.654H257.147V231.966Z" fill="#2F2E41"/>
<path d="M297.633 252.268C308.477 246.34 312.462 232.744 306.535 221.9C300.607 211.056 287.011 207.071 276.167 212.999C265.323 218.926 261.338 232.522 267.265 243.366C273.193 254.21 286.789 258.196 297.633 252.268Z" fill="#FFB8B8"/>
<path d="M263.556 232.844C263.387 232.648 262.99 232.19 265.75 210.951L265.837 210.604H266.087C280.078 203.722 294.272 203.549 308.279 210.088C308.711 210.292 309.081 210.605 309.355 210.996C309.629 211.387 309.797 211.842 309.842 212.318C311.476 232.272 311.081 232.707 310.913 232.893C310.656 233.174 310.344 233.399 309.995 233.553C309.647 233.707 309.271 233.787 308.89 233.787H302.684L302.553 233.553C301.488 231.573 300.319 229.65 299.051 227.793C298.468 229.641 297.991 231.522 297.621 233.425L297.545 233.787H265.622C265.23 233.787 264.843 233.703 264.486 233.54C264.13 233.378 263.813 233.14 263.556 232.844Z" fill="#2F2E41"/>
</svg>
