<svg width="56" height="56" viewBox="0 0 56 56" fill="none" xmlns="http://www.w3.org/2000/svg">
<path d="M4.33984 3.16852V18.118H19.3398M51.8398 53V38.0506H36.8398" stroke="#FEFCFC" stroke-width="5" stroke-linecap="round" stroke-linejoin="round"/>
<path d="M53.0898 26.8385C52.8531 21.3857 50.8263 16.1612 47.321 11.9678C43.8158 7.77444 39.0259 4.84417 33.6874 3.62724C28.3489 2.41031 22.7571 2.97407 17.7713 5.23188C12.7855 7.4897 8.68146 11.3166 6.08984 16.1247M3.08984 29.3301C3.37598 34.7629 5.43841 39.9531 8.96217 44.108C12.4859 48.2629 17.2774 51.1542 22.6047 52.3404C27.9321 53.5265 33.5026 52.9423 38.4655 50.6769C43.4285 48.4116 47.5111 44.5896 50.0898 39.7947" stroke="#FEFCFC" stroke-width="5" stroke-linecap="round" stroke-linejoin="round"/>
</svg>
