<svg width="500" height="500" viewBox="0 0 500 500" fill="none" xmlns="http://www.w3.org/2000/svg">
<path d="M319.667 20.8333H180.334C92.2441 20.8333 20.8335 92.2439 20.8335 180.333V319.667C20.8335 407.756 92.2441 479.167 180.334 479.167H319.667C407.756 479.167 479.167 407.756 479.167 319.667V180.333C479.167 92.2439 407.756 20.8333 319.667 20.8333Z" fill="#F8DE40"/>
<path d="M479.167 290.375C450.841 332.8 412.359 367.471 367.22 391.234C322.08 414.998 271.716 427.099 220.708 426.438C105.25 426.438 83.9792 405.604 30.25 373.75C41.3901 404.622 61.7779 431.308 88.6352 450.172C115.492 469.037 147.513 479.161 180.333 479.167H319.667C361.969 479.167 402.538 462.362 432.45 432.45C462.362 402.538 479.167 361.969 479.167 319.667V290.375Z" fill="#E7C930"/>
<path d="M400 287.375C374.696 282.245 352.178 267.948 336.771 247.229C328.785 237.822 317.857 231.387 305.757 228.967C293.657 226.546 281.094 228.283 270.104 233.896C261.442 240.025 254.516 248.293 250 257.896C245.483 248.301 238.565 240.034 229.917 233.896C218.925 228.291 206.365 226.558 194.266 228.978C182.168 231.397 171.24 237.828 163.25 247.229C147.842 267.956 125.314 282.255 100 287.375C98.3802 287.397 96.7949 287.846 95.4048 288.678C94.0147 289.509 92.8693 290.694 92.0845 292.111C91.2998 293.528 90.9037 295.128 90.9364 296.747C90.9692 298.367 91.4295 299.949 92.2709 301.333C99.6954 314.129 110.683 324.487 123.893 331.146C137.103 337.805 151.965 340.476 166.667 338.833C216.125 335.938 240.25 318.438 250 300.646C259.708 318.438 283.833 335.938 333.333 338.833C348.09 340.484 363.008 337.792 376.257 331.086C389.506 324.38 400.509 313.953 407.917 301.083C408.717 299.694 409.137 298.118 409.136 296.514C409.135 294.911 408.712 293.336 407.91 291.947C407.108 290.558 405.955 289.405 404.567 288.603C403.178 287.8 401.604 287.377 400 287.375Z" fill="#864E20"/>
<path d="M110.833 104.312C106.246 72.0501 90.3502 42.4655 65.9792 20.8333C41.6004 42.4622 25.6966 72.0473 21.1042 104.312C17.4583 152.833 51.875 162.229 65.9792 162.229C80.0833 162.229 114.583 152.833 110.833 104.312Z" fill="#26A9E0"/>
<path d="M381.042 189.25H295.625C292.477 189.12 289.502 187.778 287.32 185.505C285.139 183.231 283.921 180.203 283.921 177.052C283.921 173.902 285.139 170.873 287.32 168.6C289.502 166.326 292.477 164.984 295.625 164.854H381.042C384.19 164.984 387.165 166.326 389.347 168.6C391.528 170.873 392.746 173.902 392.746 177.052C392.746 180.203 391.528 183.231 389.347 185.505C387.165 187.778 384.19 189.12 381.042 189.25ZM204.292 189.25H118.959C115.811 189.12 112.835 187.778 110.654 185.505C108.472 183.231 107.254 180.203 107.254 177.052C107.254 173.902 108.472 170.873 110.654 168.6C112.835 166.326 115.811 164.984 118.959 164.854H204.375C207.523 164.984 210.499 166.326 212.68 168.6C214.861 170.873 216.079 173.902 216.079 177.052C216.079 180.203 214.861 183.231 212.68 185.505C210.499 187.778 207.523 189.12 204.375 189.25H204.292Z" fill="#864E20"/>
<path d="M180.667 212.604C185.334 212.607 189.956 211.69 194.269 209.907C198.583 208.123 202.502 205.507 205.805 202.209C209.107 198.911 211.727 194.994 213.516 190.683C215.304 186.372 216.226 181.751 216.229 177.083H145.125C145.131 186.506 148.878 195.541 155.542 202.202C162.207 208.862 171.244 212.604 180.667 212.604ZM357.417 212.604C362.084 212.607 366.706 211.69 371.019 209.907C375.333 208.123 379.252 205.507 382.555 202.209C385.857 198.911 388.477 194.994 390.266 190.683C392.054 186.372 392.976 181.751 392.979 177.083H321.875C321.88 186.506 325.628 195.541 332.292 202.202C338.957 208.862 347.994 212.604 357.417 212.604Z" fill="#864E20"/>
</svg>
