<svg width="737" height="421" viewBox="0 0 737 421" fill="none" xmlns="http://www.w3.org/2000/svg">
<g clip-path="url(#clip0_54_235)">
<path d="M149.743 352.002C76.9647 347.226 33.614 287.965 21.7432 216.002C13.2182 164.323 24.6571 128.878 54.7432 86.0025C99.573 22.1158 160.699 8.49864 238.743 8.00248C320.942 7.47992 349.578 89.6122 431.743 92.0025C499.198 93.9648 530.783 35.6188 597.743 44.0025C641.205 49.4442 673.639 52.4058 701.743 86.0025C738.107 129.473 729.285 178.582 707.743 231.002C682.031 293.572 635.898 318.813 570.743 337.002C487.715 360.182 441.552 278.767 355.743 287.002C315.673 290.848 294.198 300.1 255.743 312.002C213.477 325.085 193.893 354.9 149.743 352.002Z" fill="#D9D9D9"/>
<path d="M121.142 191.423V73.1076C121.142 71.418 121.813 69.7976 123.008 68.6028C124.203 67.408 125.824 66.7368 127.514 66.7368C129.204 66.7368 130.824 67.408 132.019 68.6028C133.214 69.7976 133.885 71.418 133.885 73.1076V191.423C133.885 193.113 133.214 194.733 132.019 195.928C130.824 197.123 129.204 197.794 127.514 197.794C125.824 197.794 124.203 197.123 123.008 195.928C121.813 194.733 121.142 193.113 121.142 191.423Z" fill="#82C8BB"/>
<path d="M105.896 191.423V73.1076C105.896 71.418 106.567 69.7976 107.762 68.6028C108.957 67.408 110.577 66.7368 112.267 66.7368C113.957 66.7368 115.578 67.408 116.773 68.6028C117.968 69.7976 118.639 71.418 118.639 73.1076V191.423C118.639 193.113 117.968 194.733 116.773 195.928C115.578 197.123 113.957 197.794 112.267 197.794C110.577 197.794 108.957 197.123 107.762 195.928C106.567 194.733 105.896 193.113 105.896 191.423Z" fill="#82C8BB"/>
<path d="M90.6489 191.423V73.1076C90.6489 71.418 91.3202 69.7976 92.5152 68.6028C93.7101 67.408 95.3307 66.7368 97.0206 66.7368C98.7105 66.7368 100.331 67.408 101.526 68.6028C102.721 69.7976 103.392 71.418 103.392 73.1076V191.423C103.392 193.113 102.721 194.733 101.526 195.928C100.331 197.123 98.7105 197.794 97.0206 197.794C95.3307 197.794 93.7101 197.123 92.5152 195.928C91.3202 194.733 90.6489 193.113 90.6489 191.423Z" fill="#82C8BB"/>
<path d="M666.289 380.396C663.723 380.398 661.176 379.956 658.761 379.089L658.389 378.955L658.56 378.131C654.235 369.394 655.747 357.424 662.432 347.581C668.509 338.634 677.75 332.129 685.903 326.39C686.938 325.662 688.166 325.26 689.431 325.236C690.696 325.211 691.939 325.566 693.001 326.254C694.063 326.942 694.895 327.931 695.389 329.096C695.884 330.26 696.019 331.546 695.777 332.787L692.861 347.744C690.757 358.534 688.254 368.746 680.831 375.114C676.753 378.525 671.606 380.395 666.289 380.396Z" fill="#7BCC83"/>
<path d="M685.383 406.241C682.559 406.225 679.784 405.503 677.31 404.141C674.836 402.78 672.741 400.822 671.216 398.446L671.005 398.117L671.509 397.672C672.813 390.557 678.948 384.217 687.186 381.49C694.673 379.012 702.938 379.418 710.225 379.774C711.188 379.821 712.116 380.153 712.89 380.727C713.664 381.301 714.25 382.093 714.574 383.001C714.898 383.909 714.946 384.892 714.71 385.827C714.474 386.762 713.966 387.606 713.25 388.251L705.051 395.651C699.093 401.028 693.15 405.882 685.982 406.23C685.782 406.238 685.582 406.242 685.383 406.241Z" fill="#7BCC83"/>
<path d="M659.937 414.152C658.727 405.137 657.482 396.006 658.331 386.894C659.085 378.802 661.5 370.899 666.418 364.418C669.016 360.996 672.192 358.054 675.803 355.725C676.741 355.12 677.605 356.64 676.671 357.243C670.411 361.306 665.596 367.244 662.915 374.208C659.92 381.993 659.439 390.481 659.955 398.751C660.268 403.753 660.929 408.722 661.595 413.685C661.649 413.907 661.617 414.142 661.506 414.342C661.395 414.542 661.212 414.693 660.995 414.766C660.885 414.795 660.771 414.802 660.658 414.787C660.545 414.772 660.437 414.735 660.339 414.678C660.24 414.621 660.154 414.545 660.085 414.455C660.017 414.365 659.966 414.262 659.937 414.152Z" fill="#F2F2F2"/>
<path d="M656.516 419.334C662.343 408.793 669.103 397.079 681.182 393.335C684.536 392.298 688.06 391.926 691.557 392.24C692.658 392.337 692.383 394.073 691.284 393.976C685.411 393.482 679.551 395.067 674.727 398.453C670.058 401.701 666.424 406.217 663.347 411.005C661.463 413.939 659.775 416.996 658.086 420.05C657.547 421.026 655.97 420.321 656.516 419.334Z" fill="#F2F2F2"/>
<path d="M396.945 194.442V132.203C396.945 130.355 399.803 128.852 403.317 128.852C406.83 128.852 409.688 130.355 409.688 132.203V194.442C409.688 196.29 406.83 197.793 403.317 197.793C399.803 197.793 396.945 196.29 396.945 194.442Z" fill="#7BCC83"/>
<path d="M381.698 194.442V132.203C381.698 130.355 384.557 128.852 388.07 128.852C391.583 128.852 394.442 130.355 394.442 132.203V194.442C394.442 196.29 391.583 197.793 388.07 197.793C384.557 197.793 381.698 196.29 381.698 194.442Z" fill="#7BCC83"/>
<path d="M366.452 194.442V132.203C366.452 130.355 369.31 128.852 372.824 128.852C376.337 128.852 379.196 130.355 379.196 132.203V194.442C379.196 196.29 376.337 197.793 372.824 197.793C369.31 197.793 366.452 196.29 366.452 194.442Z" fill="#7BCC83"/>
<path d="M464.776 419.467L353.53 419.467C351.263 419.464 349.09 418.562 347.488 416.96C345.885 415.357 344.984 413.185 344.981 410.918V226.878C344.979 224.853 344.173 222.912 342.741 221.48C341.309 220.048 339.368 219.243 337.342 219.241L105.342 219.409C103.317 219.411 101.375 220.217 99.9431 221.649C98.511 223.08 97.7055 225.022 97.7031 227.047V411.087C97.7005 413.353 96.799 415.526 95.1963 417.128C93.5936 418.731 91.4207 419.632 89.1541 419.635H85.3166C83.05 419.632 80.877 418.731 79.2744 417.128C77.6717 415.526 76.7702 413.353 76.7676 411.087V217.134C76.7737 211.705 78.9334 206.5 82.7729 202.661C86.6124 198.822 91.8181 196.662 97.248 196.656H453.108C458.538 196.662 463.744 198.822 467.583 202.661C471.423 206.5 473.275 211.634 473.281 217.063L473.325 410.918C473.323 413.185 472.421 415.357 470.818 416.96C469.215 418.563 467.042 419.464 464.776 419.467Z" fill="white"/>
<path d="M473.326 244.822H344.981V250.282H473.326V244.822Z" fill="#3F3D56"/>
<path d="M473.325 318.541H344.981V324.002H473.325V318.541Z" fill="#3F3D56"/>
<path d="M269.542 195.757L265.853 194.204L263.323 175.715H229.625L226.883 194.129L223.582 195.779C223.425 195.858 223.298 195.988 223.223 196.147C223.148 196.307 223.13 196.488 223.17 196.66C223.211 196.831 223.308 196.984 223.447 197.094C223.585 197.203 223.756 197.263 223.933 197.263H269.238C269.419 197.263 269.594 197.2 269.734 197.086C269.874 196.971 269.97 196.812 270.006 196.635C270.042 196.457 270.015 196.273 269.931 196.113C269.846 195.953 269.709 195.828 269.542 195.757Z" fill="#E6E6E6"/>
<path d="M329.424 178.175H163.894C163.025 178.173 162.193 177.827 161.58 177.212C160.966 176.597 160.622 175.764 160.622 174.896V151.557H332.697V174.896C332.697 175.764 332.352 176.597 331.739 177.212C331.125 177.827 330.293 178.173 329.424 178.175Z" fill="#CCCCCC"/>
<path d="M332.869 162.588H160.47V62.7257C160.471 61.6777 160.888 60.673 161.629 59.932C162.371 59.191 163.376 58.7741 164.424 58.7729H328.916C329.964 58.7741 330.969 59.191 331.71 59.932C332.451 60.673 332.868 61.6777 332.869 62.7257V162.588Z" fill="#3F3D56"/>
<path d="M322.573 155.34H170.767C169.959 155.339 169.184 155.018 168.613 154.446C168.042 153.875 167.72 153.101 167.719 152.293V69.0685C167.72 68.2605 168.042 67.4859 168.613 66.9146C169.184 66.3433 169.959 66.0219 170.767 66.021H322.573C323.381 66.0219 324.155 66.3433 324.727 66.9146C325.298 67.4859 325.62 68.2606 325.621 69.0685V152.293C325.62 153.101 325.298 153.875 324.727 154.446C324.155 155.018 323.381 155.339 322.573 155.34Z" fill="white"/>
<path d="M321.51 126.366C321.427 127.065 321.399 127.77 321.427 128.473L270.387 165.6L256.365 159.396L244.234 179.331L267.99 192.727C269.909 193.809 272.127 194.24 274.312 193.954C276.497 193.668 278.53 192.682 280.106 191.142L331.476 140.973C334.105 141.641 336.876 141.493 339.419 140.549C341.962 139.604 344.157 137.907 345.712 135.685C347.268 133.462 348.109 130.819 348.125 128.106C348.141 125.394 347.331 122.74 345.802 120.499C344.274 118.259 342.099 116.536 339.567 115.561C337.035 114.586 334.267 114.405 331.629 115.042C328.992 115.679 326.611 117.104 324.804 119.126C322.996 121.149 321.847 123.674 321.51 126.366Z" fill="#FFB6B6"/>
<path d="M268.737 166.958L253.853 191.757C253.429 192.462 252.858 193.068 252.18 193.534C251.501 193.999 250.73 194.312 249.919 194.453C249.108 194.593 248.276 194.557 247.48 194.347C246.684 194.137 245.943 193.758 245.307 193.236L223.022 174.936C219.424 172.748 216.841 169.224 215.838 165.135C214.835 161.047 215.495 156.727 217.672 153.124C219.849 149.521 223.366 146.927 227.452 145.913C231.539 144.898 235.86 145.545 239.471 147.711L266.022 158.723C266.782 159.038 267.465 159.514 268.025 160.117C268.585 160.72 269.008 161.437 269.265 162.219C269.523 163 269.609 163.828 269.518 164.646C269.427 165.464 269.16 166.252 268.737 166.958Z" fill="#6C63FF"/>
<path d="M353.586 197.483C366.525 180.274 376.754 161.186 383.918 140.882C384.333 139.667 384.303 138.345 383.835 137.15C383.366 135.955 382.488 134.966 381.358 134.357L337.079 110.635C336.363 110.248 335.568 110.03 334.754 109.997C333.941 109.964 333.131 110.117 332.385 110.444C331.626 110.774 330.952 111.273 330.415 111.903C329.878 112.532 329.491 113.276 329.284 114.077C324.131 133.643 314.443 151.72 301.006 166.848C300.452 167.463 300.047 168.197 299.82 168.993C299.594 169.789 299.552 170.627 299.697 171.441C299.838 172.243 300.159 173.002 300.637 173.661C301.115 174.32 301.737 174.861 302.456 175.243L346.735 198.966C347.868 199.57 349.178 199.752 350.432 199.481C351.687 199.209 352.804 198.501 353.586 197.483Z" fill="#CCCCCC"/>
<path d="M204.963 382.507H234.138V334.165H204.963V382.507Z" fill="#CACACA"/>
<path d="M232.676 359.745L228.932 365.263L298.953 412.77L302.698 407.253L232.676 359.745Z" fill="#CACACA"/>
<path d="M206.425 359.745L136.404 407.253L140.148 412.771L210.17 365.263L206.425 359.745Z" fill="#CACACA"/>
<path d="M300.825 419.18C305.889 419.18 309.995 415.075 309.995 410.011C309.995 404.948 305.889 400.843 300.825 400.843C295.761 400.843 291.656 404.948 291.656 410.011C291.656 415.075 295.761 419.18 300.825 419.18Z" fill="#CACACA"/>
<path d="M219.134 419.18C224.198 419.18 228.303 415.075 228.303 410.011C228.303 404.948 224.198 400.843 219.134 400.843C214.07 400.843 209.964 404.948 209.964 410.011C209.964 415.075 214.07 419.18 219.134 419.18Z" fill="#CACACA"/>
<path d="M138.276 419.18C143.34 419.18 147.445 415.075 147.445 410.011C147.445 404.948 143.34 400.843 138.276 400.843C133.212 400.843 129.106 404.948 129.106 410.011C129.106 415.075 133.212 419.18 138.276 419.18Z" fill="#CACACA"/>
<path d="M222.468 362.504H215.799V410.012H222.468V362.504Z" fill="#CACACA"/>
<path d="M213.298 355.836H225.802V291.659H213.298V355.836Z" fill="#CACACA"/>
<path d="M183.707 301.66V286.658C183.71 283.895 184.808 281.247 186.762 279.294C188.715 277.341 191.364 276.242 194.126 276.239H249.977C252.739 276.242 255.388 277.341 257.341 279.294C259.294 281.247 260.393 283.896 260.396 286.658V301.66C260.393 304.422 259.294 307.071 257.341 309.024C255.388 310.977 252.739 312.075 249.976 312.079H194.126C191.364 312.075 188.715 310.977 186.762 309.024C184.808 307.071 183.71 304.422 183.707 301.66Z" fill="#3F3D56"/>
<path d="M284.579 404.21L300.024 404.209L307.373 364.154L284.577 364.155L284.579 404.21Z" fill="#FFB8B8"/>
<path d="M280.64 419.18L330.444 419.178V418.548C330.444 416.003 329.942 413.483 328.968 411.131C327.994 408.779 326.566 406.643 324.766 404.843C322.966 403.043 320.829 401.616 318.477 400.641C316.125 399.667 313.605 399.166 311.059 399.166H311.057L280.639 399.167L280.64 419.18Z" fill="#2F2E41"/>
<path d="M307.681 379.371L338.474 310.329C341.045 304.51 341.329 297.936 339.27 291.916C337.211 285.897 332.96 280.874 327.363 277.848L260.572 242.037L230.094 239.445L201.98 236.89L201.778 237.233C201.518 237.671 195.474 248.111 199.56 259.558C202.659 268.24 210.721 275.022 223.521 279.716C253.399 290.669 287.913 300.031 301.365 303.547C301.959 303.699 302.515 303.975 302.995 304.357C303.475 304.739 303.869 305.218 304.151 305.764C304.433 306.302 304.601 306.894 304.643 307.501C304.686 308.107 304.602 308.716 304.398 309.289L275.79 373.553C275.492 374.368 275.384 375.241 275.476 376.104C275.568 376.967 275.857 377.798 276.321 378.532C276.784 379.266 277.41 379.883 278.151 380.337C278.891 380.791 279.725 381.068 280.59 381.148L301.966 382.705C302.147 382.722 302.328 382.73 302.508 382.73C303.602 382.73 304.674 382.412 305.592 381.816C306.51 381.22 307.235 380.371 307.681 379.371Z" fill="#2F2E41"/>
<path d="M274.5 404.21L289.945 404.209L297.294 364.154L274.498 364.155L274.5 404.21Z" fill="#FFB8B8"/>
<path d="M270.561 419.18L320.364 419.178V418.548C320.364 416.003 319.863 413.483 318.889 411.131C317.915 408.779 316.487 406.643 314.687 404.843C312.887 403.043 310.75 401.616 308.398 400.641C306.046 399.667 303.526 399.166 300.98 399.166H300.978L270.56 399.167L270.561 419.18Z" fill="#2F2E41"/>
<path d="M296.342 383.15L327.135 314.108C329.706 308.289 329.99 301.715 327.931 295.696C325.872 289.676 321.621 284.654 316.024 281.627L249.233 245.817L218.755 243.225L196.735 241.315L196.738 241.013C196.479 241.451 190.434 251.89 194.52 263.337C197.62 272.02 199.382 278.802 212.182 283.495C242.06 294.448 276.574 303.81 290.026 307.326C290.62 307.478 291.176 307.754 291.656 308.136C292.136 308.518 292.53 308.998 292.812 309.543C293.094 310.082 293.262 310.673 293.304 311.28C293.347 311.887 293.263 312.496 293.059 313.069L264.451 377.333C264.153 378.148 264.045 379.02 264.137 379.884C264.229 380.747 264.518 381.577 264.982 382.311C265.445 383.045 266.071 383.663 266.812 384.116C267.552 384.57 268.386 384.848 269.251 384.928L290.627 386.484C290.808 386.501 290.989 386.51 291.169 386.51C292.263 386.509 293.335 386.192 294.253 385.596C295.171 384.999 295.896 384.15 296.342 383.15Z" fill="#2F2E41"/>
<path d="M277.026 85.7685C280.98 69.1445 270.708 52.4632 254.081 48.5098C237.455 44.5564 220.771 54.8279 216.817 71.4519C212.864 88.0759 223.136 104.757 239.763 108.711C256.389 112.664 273.072 102.393 277.026 85.7685Z" fill="#FFB8B8"/>
<path d="M350.564 195.213C350.326 195.51 349.992 195.715 349.618 195.792C349.245 195.869 348.857 195.813 348.521 195.635L304.241 171.912C304.026 171.8 303.84 171.639 303.698 171.443C303.555 171.247 303.46 171.021 303.419 170.782C303.373 170.529 303.386 170.27 303.457 170.023C303.528 169.777 303.655 169.55 303.829 169.361C317.662 153.788 327.635 135.178 332.941 115.036C333.002 114.787 333.12 114.556 333.286 114.36C333.452 114.164 333.66 114.01 333.896 113.908C334.118 113.809 334.359 113.763 334.602 113.773C334.845 113.783 335.082 113.849 335.295 113.966L379.573 137.688C379.908 137.87 380.17 138.162 380.313 138.516C380.455 138.869 380.47 139.262 380.354 139.625C373.318 159.565 363.272 178.311 350.564 195.213Z" fill="white"/>
<path d="M335.073 136.505L365.614 154.403C368.652 156.184 371.404 151.466 368.37 149.688L337.83 131.789C334.791 130.009 332.039 134.727 335.073 136.505Z" fill="#E44D4C"/>
<path d="M329.612 146.516L360.152 164.414C363.191 166.195 365.943 161.477 362.909 159.699L332.368 141.801C329.33 140.02 326.578 144.738 329.612 146.516Z" fill="#E44D4C"/>
<path d="M325.321 156.488L353.096 172.975C355.859 174.615 358.815 171.224 356.056 169.586L328.281 153.099C325.517 151.459 322.561 154.85 325.321 156.488Z" fill="#E44D4C"/>
<path d="M316.868 166.538L347.409 184.437C350.447 186.218 353.199 181.5 350.165 179.722L319.625 161.823C316.586 160.042 313.834 164.76 316.868 166.538Z" fill="#E44D4C"/>
<path d="M264.764 244.543L203.528 244.177L203.512 243.742C202.344 213.022 206.099 185.194 214.991 158.669C215.117 157.676 215.253 156.615 215.386 155.573C216.905 143.706 218.111 134.284 229.397 130.775C228.457 129.525 227.903 128.027 227.803 126.466C227.731 125.429 227.867 124.388 228.203 123.403C228.538 122.419 229.065 121.511 229.755 120.733C230.415 119.981 231.217 119.368 232.116 118.929C233.015 118.491 233.993 118.235 234.991 118.178L256.787 117.436C257.933 117.428 259.047 117.806 259.952 118.509C261.611 119.741 262.778 121.524 263.242 123.538C263.706 125.553 263.438 127.666 262.486 129.501C262.229 130.012 262.131 130.244 262.093 130.346C262.868 134.405 265.167 139.227 267.6 144.329C271.084 151.635 275.032 159.915 276.047 168.773C276.595 173.556 276.368 178.396 275.372 183.107C274.918 185.645 274.813 188.234 275.061 190.8C275.261 194.606 275.448 198.199 273.297 201.674C272.749 202.617 272.121 203.621 271.385 204.734L268.358 211.967L264.764 244.543Z" fill="#E44D4C"/>
<path d="M172.87 287.534V162.428C172.874 158.351 174.496 154.443 177.379 151.56C180.262 148.677 184.171 147.056 188.248 147.051H192.502C196.579 147.056 200.488 148.677 203.371 151.56C206.254 154.443 207.876 158.351 207.88 162.428V287.534C207.876 291.611 206.254 295.519 203.371 298.402C200.488 301.284 196.579 302.906 192.502 302.91H188.248C184.171 302.906 180.262 301.284 177.379 298.402C174.496 295.519 172.874 291.611 172.87 287.534Z" fill="#3F3D56"/>
<path d="M337.081 174.914C336.641 175.465 336.246 176.049 335.898 176.661L272.948 181.257L264.314 168.586L243.487 179.115L256.591 203.031C257.65 204.963 259.306 206.499 261.313 207.41C263.319 208.32 265.567 208.555 267.718 208.08L337.834 192.581C339.714 194.536 342.146 195.873 344.804 196.413C347.463 196.952 350.223 196.67 352.717 195.603C355.212 194.536 357.322 192.735 358.768 190.44C360.213 188.144 360.926 185.463 360.811 182.753C360.695 180.043 359.757 177.432 358.121 175.268C356.486 173.104 354.23 171.489 351.654 170.638C349.078 169.787 346.304 169.74 343.701 170.504C341.097 171.268 338.789 172.807 337.081 174.914Z" fill="#FFB6B6"/>
<path d="M270.83 181.538L245.096 194.745C244.364 195.121 243.559 195.335 242.737 195.372C241.915 195.408 241.094 195.268 240.332 194.959C239.569 194.65 238.881 194.18 238.316 193.582C237.751 192.984 237.322 192.271 237.057 191.491L227.791 164.187C225.89 160.438 225.552 156.09 226.85 152.093C228.148 148.096 230.976 144.775 234.716 142.858C223.308 148.712 247.066 132.082 256.134 149.745L272.871 173.111C273.35 173.78 273.68 174.545 273.837 175.352C273.993 176.16 273.974 176.992 273.781 177.792C273.587 178.592 273.223 179.341 272.714 179.987C272.204 180.634 271.562 181.163 270.83 181.538Z" fill="#E44D4C"/>
<path d="M232.943 108.703C231.081 108.703 229.026 107.805 226.709 105.987C219.891 100.634 215.017 93.1924 212.836 84.8038C210.655 76.4152 211.287 67.5428 214.634 59.5476C216.319 55.524 219.469 50.0553 224.913 46.8504C228.826 44.5475 233.422 43.7156 237.424 43.1166C240.888 42.5975 244.396 42.1842 247.849 41.89C251.975 41.5372 256.742 41.299 261.089 42.9503C264.275 44.1609 266.986 46.2984 269.608 48.3657C270.521 49.0856 271.466 49.8313 272.413 50.521C274.706 52.3098 277.351 53.5942 280.175 54.2904C280.771 54.4139 281.333 54.6639 281.824 55.0234C282.315 55.383 282.723 55.8437 283.021 56.3745C283.325 56.9141 283.509 57.5125 283.561 58.1293C283.614 58.7462 283.533 59.3671 283.325 59.9501C282.916 61.0967 282.547 62.1303 283.293 63.2502C283.57 63.6447 283.939 63.9654 284.369 64.1842C284.798 64.403 285.275 64.5132 285.757 64.5052C286.011 64.501 286.262 64.5605 286.488 64.6781C286.713 64.7958 286.906 64.9679 287.048 65.1789C287.192 65.388 287.283 65.6292 287.312 65.8814C287.341 66.1336 287.309 66.3892 287.217 66.6258L287.097 66.9342C287.417 66.9641 287.725 67.0714 287.995 67.2468C288.265 67.4222 288.488 67.6605 288.645 67.9412C288.879 68.3409 288.969 68.8084 288.901 69.2664C288.833 69.7244 288.611 70.1454 288.271 70.46C285.51 73.0882 282.067 74.8898 278.333 75.6604C275.778 76.1615 273.15 76.1554 270.597 75.6426L270.186 75.5626L270.237 75.1075C259.911 71.4253 250.59 77.6744 245.276 84.8184L244.509 84.334C244.641 84.0678 244.717 83.7776 244.734 83.481C244.751 83.1844 244.707 82.8874 244.606 82.608C244.499 82.2727 244.327 81.9618 244.1 81.6931C243.873 81.4243 243.595 81.2031 243.282 81.0419C242.649 80.7809 241.953 80.7131 241.282 80.8471C240.61 80.9811 239.994 81.3108 239.509 81.7947C239.016 82.3114 238.636 82.9251 238.393 83.5967C238.151 84.2683 238.05 84.9831 238.099 85.6956C238.239 87.2057 238.623 88.683 239.238 90.0694C239.488 90.7324 239.746 91.4185 239.956 92.11C241.132 96.0382 240.819 100.262 239.076 103.974C238.271 105.667 236.817 107.826 234.455 108.495C233.963 108.634 233.455 108.704 232.943 108.703Z" fill="#2F2E41"/>
<path d="M583.446 406.778L569.866 406.777L563.404 354.398L583.45 354.4L583.446 406.778Z" fill="#FFB8B8"/>
<path d="M543.672 419.386L586.357 419.388L586.357 402.899L560.165 402.898C555.791 402.897 551.596 404.634 548.503 407.727C545.41 410.819 543.673 415.013 543.672 419.386Z" fill="#2F2E41"/>
<path d="M632.19 406.778L618.609 406.777L612.147 354.398L632.193 354.4L632.19 406.778Z" fill="#FFB8B8"/>
<path d="M592.416 419.386L635.1 419.388L635.101 402.899L608.908 402.898C604.534 402.897 600.339 404.634 597.246 407.727C594.153 410.819 592.416 415.013 592.416 419.386Z" fill="#2F2E41"/>
<path d="M620.322 390.669L633.588 389.971C634.272 389.936 634.942 389.764 635.559 389.467C636.177 389.171 636.729 388.754 637.184 388.243C637.639 387.731 637.989 387.134 638.211 386.486C638.434 385.839 638.526 385.153 638.482 384.47L622.627 208.945L549.611 228.646L542.576 226.727L564.575 382.113C564.762 383.282 565.343 384.352 566.221 385.146C567.099 385.94 568.221 386.412 569.403 386.482L583.704 387.148C584.419 387.188 585.134 387.079 585.805 386.828C586.476 386.577 587.087 386.19 587.6 385.69C588.114 385.191 588.518 384.591 588.788 383.928C589.057 383.264 589.186 382.552 589.167 381.836L586.575 288.576C586.563 288.145 586.713 287.725 586.995 287.399C587.278 287.072 587.672 286.864 588.101 286.814C588.529 286.764 588.961 286.876 589.311 287.128C589.661 287.381 589.903 287.755 589.991 288.178L614.98 386.55C615.215 387.718 615.849 388.767 616.772 389.519C617.695 390.272 618.85 390.681 620.041 390.677C620.134 390.677 620.228 390.675 620.322 390.669Z" fill="#2F2E41"/>
<path d="M581.008 65.3289C565.981 65.3289 553.799 53.1488 553.799 38.1239C553.799 23.099 565.981 10.9189 581.008 10.9189C596.035 10.9189 608.217 23.099 608.217 38.1239C608.217 53.1488 596.035 65.3289 581.008 65.3289Z" fill="#A0616A"/>
<path d="M626.309 118.051L623.317 182.59L622.236 206.071C622.192 207.093 621.845 208.079 621.239 208.903C620.632 209.727 619.793 210.351 618.83 210.696L548.666 236.109C548.1 236.32 547.499 236.425 546.894 236.42C546.203 236.423 545.519 236.287 544.881 236.02C544.244 235.753 543.667 235.36 543.185 234.865C542.702 234.37 542.325 233.783 542.075 233.139C541.824 232.495 541.706 231.807 541.728 231.116L544.604 115.071C544.793 105.55 548.299 96.3934 554.516 89.1795C560.733 81.9656 569.273 77.1466 578.662 75.5532C579.341 75.4497 580.031 75.3461 580.722 75.2541C586.544 74.5314 592.454 75.0932 598.036 76.8999C603.618 78.7066 608.736 81.7144 613.031 85.7116C617.478 89.8009 620.972 94.8168 623.266 100.405C625.56 105.993 626.599 112.017 626.309 118.051Z" fill="#76B3A8"/>
<path d="M515.15 223.231C516.809 222.716 518.325 221.821 519.577 220.616C520.829 219.411 521.782 217.93 522.36 216.292C522.937 214.653 523.124 212.902 522.905 211.179C522.686 209.455 522.067 207.807 521.097 206.365L544.891 174.731L524.358 173.46L504.912 203.696C502.83 205.305 501.381 207.596 500.82 210.167C500.258 212.737 500.62 215.424 501.842 217.754C503.063 220.085 505.066 221.911 507.5 222.912C509.933 223.914 512.641 224.027 515.15 223.231Z" fill="#A0616A"/>
<path d="M531.879 200.64C532.509 200.385 533.082 200.006 533.566 199.527C534.049 199.049 534.432 198.479 534.694 197.851L570.54 112.457C571.243 110.786 571.61 108.991 571.62 107.178C571.629 105.364 571.281 103.566 570.596 101.887C569.91 100.207 568.9 98.6798 567.624 97.391C566.347 96.1022 564.829 95.0775 563.157 94.3756C561.484 93.6736 559.689 93.3081 557.875 93.2999C556.061 93.2918 554.263 93.6411 552.584 94.3281C550.905 95.015 549.378 96.026 548.09 97.3032C546.802 98.5805 545.779 100.099 545.078 101.772L509.232 187.167C508.702 188.433 508.696 189.857 509.215 191.128C509.735 192.398 510.737 193.411 512.002 193.943L527.916 200.621C528.542 200.886 529.215 201.025 529.895 201.028C530.576 201.031 531.25 200.899 531.879 200.64Z" fill="#76B3A8"/>
<path d="M589.756 197.628L555.327 131.713C554.663 130.446 553.523 129.493 552.157 129.065C550.792 128.636 549.312 128.767 548.043 129.428L498.068 155.524C496.801 156.188 495.848 157.328 495.419 158.693C494.991 160.058 495.121 161.538 495.783 162.807L530.212 228.722C530.876 229.989 532.016 230.942 533.381 231.37C534.747 231.799 536.226 231.668 537.496 231.007L587.47 204.911C588.738 204.247 589.691 203.108 590.119 201.742C590.548 200.377 590.417 198.897 589.756 197.628Z" fill="#3F3D56"/>
<path d="M566.667 167.514C567.279 165.888 568.262 164.427 569.539 163.249C570.816 162.071 572.351 161.207 574.021 160.727C575.691 160.247 577.45 160.164 579.157 160.485C580.865 160.805 582.474 161.521 583.856 162.573L616.845 140.693L616.901 161.261L585.566 178.886C583.836 180.869 581.463 182.18 578.864 182.588C576.264 182.997 573.604 182.477 571.349 181.121C569.094 179.764 567.389 177.657 566.533 175.169C565.677 172.681 565.724 169.971 566.667 167.514Z" fill="#A0616A"/>
<path d="M608.375 172.139L635.336 150.786C638.252 149.807 640.888 148.135 643.016 145.913C645.143 143.691 646.7 140.986 647.553 138.031C648.405 135.075 648.527 131.956 647.909 128.943C647.29 125.93 645.95 123.111 644.002 120.73L619.523 88.6529C617.822 86.5745 615.43 85.1776 612.783 84.7175C610.137 84.2575 607.414 84.7651 605.111 86.1475C602.808 87.53 601.079 89.6948 600.242 92.2465C599.404 94.7981 599.512 97.5661 600.547 100.044L619.916 131.723L591.452 145.222C590.79 145.536 590.202 145.986 589.728 146.544C589.253 147.102 588.902 147.754 588.698 148.458C588.494 149.161 588.441 149.9 588.544 150.625C588.647 151.35 588.902 152.046 589.294 152.665L600.784 170.846C601.172 171.459 601.685 171.985 602.289 172.387C602.894 172.79 603.576 173.062 604.292 173.184C604.32 173.189 604.349 173.193 604.377 173.198C605.081 173.304 605.798 173.265 606.486 173.083C607.174 172.901 607.817 172.579 608.375 172.139Z" fill="#76B3A8"/>
<path d="M601.568 56.3411C601.685 55.9996 601.722 55.636 601.676 55.278C601.631 54.92 601.504 54.5771 601.305 54.2757C601.107 53.9743 600.842 53.7224 600.531 53.5391C600.22 53.3559 599.871 53.2463 599.511 53.2186C598.775 53.2587 598.053 53.4477 597.392 53.7741C596.73 54.1006 596.141 54.5578 595.661 55.1181C594.676 56.2533 593.53 57.2375 592.258 58.0391C590.942 58.7025 589.157 58.608 588.407 57.3433C587.702 56.1556 588.185 54.5653 588.612 53.1857C589.697 49.676 590.304 46.036 590.417 42.364C590.54 38.2654 589.962 33.988 587.692 30.7912C584.763 26.6655 579.526 25.0992 574.57 25.2128C569.614 25.3264 564.738 26.8561 559.828 27.8232C558.133 28.157 556.141 28.3277 555.008 27.0143C553.802 25.6177 554.245 23.3575 554.758 21.4719C556.088 16.5789 557.5 11.5201 560.591 7.56843C563.933 3.46227 568.707 0.774819 573.952 0.0473301C578.987 -0.576297 584.098 0.00390792 588.865 1.74024C596.632 4.18793 603.466 8.94838 608.454 15.3849C613.596 22.2299 615.817 30.832 614.634 39.3103C613.477 46.6946 609.563 53.3658 603.682 57.9793L601.568 56.3411Z" fill="#2F2E41"/>
<path d="M735.916 421H1.08361C0.796705 420.999 0.521846 420.884 0.31927 420.681C0.116694 420.478 0.00292969 420.203 0.00292969 419.916C0.00292969 419.629 0.116694 419.354 0.31927 419.151C0.521846 418.948 0.796705 418.833 1.08361 418.833H735.916C736.203 418.833 736.479 418.947 736.682 419.15C736.886 419.353 737 419.629 737 419.916C737 420.204 736.886 420.479 736.682 420.682C736.479 420.886 736.203 421 735.916 421Z" fill="#3F3D56"/>
</g>
<defs>
<clipPath id="clip0_54_235">
<rect width="737" height="421" fill="white"/>
</clipPath>
</defs>
</svg>
